<svg width="78" height="57" viewBox="0 0 78 57" fill="none" xmlns="http://www.w3.org/2000/svg">
<path d="M7.73445 48.0135C7.75528 48.0328 7.77187 48.0563 7.78315 48.0825C7.79443 48.1086 7.80017 48.1368 7.8 48.1652L7.83951 50.1235V54.622L7.8 56.5803C7.80017 56.6087 7.79443 56.6369 7.78315 56.663C7.77187 56.6891 7.75528 56.7126 7.73445 56.732C7.71381 56.7525 7.68929 56.7688 7.66231 56.7797C7.63533 56.7907 7.60644 56.7961 7.57732 56.7958H6.79077C6.76151 56.7962 6.73247 56.7908 6.70533 56.7798C6.6782 56.7689 6.65352 56.7526 6.63274 56.732C6.61191 56.7126 6.59533 56.6891 6.58405 56.663C6.57276 56.6369 6.56703 56.6087 6.56719 56.5803L6.52858 54.622V51.3366L4.61427 54.9156C4.58001 54.9738 4.53305 55.0235 4.4769 55.061C4.42053 55.0985 4.35422 55.1182 4.28654 55.1176H3.60504C3.53654 55.1202 3.46881 55.1024 3.41045 55.0664C3.35209 55.0305 3.30575 54.978 3.27731 54.9156L1.30913 51.2342V54.6202L1.26962 56.5785C1.26979 56.6069 1.26405 56.6351 1.25277 56.6612C1.24149 56.6873 1.2249 56.7108 1.20408 56.7302C1.18343 56.7508 1.15891 56.767 1.13193 56.7779C1.10495 56.7889 1.07606 56.7943 1.04694 56.794H0.262185C0.232928 56.7944 0.203882 56.789 0.176747 56.778C0.149612 56.7671 0.124933 56.7508 0.104156 56.7302C0.0834452 56.7108 0.0670026 56.6873 0.055873 56.6611C0.0447433 56.635 0.0391701 56.6069 0.0395073 56.5785L0 54.6202V50.1217L0.0395073 48.1634C0.0391701 48.135 0.0447433 48.1069 0.055873 48.0807C0.0670026 48.0546 0.0834452 48.0311 0.104156 48.0117C0.124977 47.9912 0.149684 47.9751 0.176823 47.9643C0.203961 47.9535 0.232984 47.9482 0.262185 47.9488H1.04874C1.09463 47.9454 1.14034 47.9576 1.17835 47.9836C1.21637 48.0095 1.24443 48.0476 1.25795 48.0916L3.94534 53.7124L6.58066 48.0916C6.59237 48.0491 6.61759 48.0116 6.65249 47.9847C6.69454 47.961 6.7426 47.9501 6.79077 47.9533H7.57732C7.60619 47.9524 7.63495 47.9573 7.66192 47.9676C7.68889 47.978 7.71355 47.9935 7.73445 48.0135Z" fill="#2F2F2F"/>
<path d="M15.7803 54.8245C15.7803 55.2465 15.7713 55.6165 15.7542 55.937C15.7372 56.2576 15.7237 56.4587 15.7147 56.5431C15.7152 56.5769 15.7084 56.6105 15.6947 56.6415C15.6811 56.6724 15.661 56.7001 15.6357 56.7227C15.6097 56.748 15.5789 56.7678 15.5452 56.7809C15.5114 56.794 15.4753 56.8001 15.4391 56.799H14.745C14.7129 56.7982 14.6813 56.791 14.652 56.7779C14.6228 56.7648 14.5964 56.746 14.5744 56.7227C14.5238 56.6756 14.4919 56.6118 14.4846 56.5431L14.4711 55.9873C14.4717 55.9798 14.4701 55.9723 14.4666 55.9656C14.4631 55.959 14.4579 55.9534 14.4514 55.9496C14.4379 55.9406 14.4226 55.9496 14.4056 55.9621C14.1911 56.2275 13.911 56.4321 13.593 56.5557C13.2591 56.7083 12.897 56.7896 12.5299 56.7945C11.9611 56.7987 11.401 56.6549 10.9047 56.377C10.4174 56.1097 10.0101 55.7173 9.72487 55.2402C9.43838 54.7681 9.28855 54.2257 9.29208 53.6734C9.28782 53.123 9.43774 52.5824 9.72487 52.1129C10.0126 51.6376 10.4193 51.2455 10.9047 50.9752C11.3999 50.6941 11.9604 50.5482 12.5299 50.5523C13.0722 50.5495 13.6065 50.6827 14.084 50.9398C14.5615 51.1969 14.9669 51.5697 15.2631 52.024C15.5546 52.471 15.7199 52.9884 15.7417 53.5217C15.7674 53.985 15.7803 54.4193 15.7803 54.8245ZM13.4924 55.2797C13.7795 55.1166 14.0191 54.8814 14.1874 54.5973C14.3577 54.3135 14.4463 53.9882 14.4433 53.6572C14.4455 53.3289 14.3546 53.0067 14.1811 52.7279C14.0087 52.4482 13.7672 52.2176 13.4799 52.0581C13.1856 51.8937 12.8535 51.8089 12.5164 51.8121C12.1827 51.8103 11.8545 51.8973 11.5655 52.0644C11.2789 52.2275 11.0378 52.46 10.8643 52.7405C10.6929 53.02 10.6022 53.3415 10.6022 53.6694C10.6022 53.9972 10.6929 54.3187 10.8643 54.5982C11.0378 54.8788 11.2789 55.1112 11.5655 55.2744C11.8597 55.4398 12.1915 55.5267 12.529 55.5267C12.8665 55.5267 13.1983 55.4398 13.4924 55.2744V55.2797Z" fill="#2F2F2F"/>
<path d="M22.5325 56.5665C22.5323 56.6258 22.5088 56.6826 22.467 56.7246C22.4473 56.7468 22.4231 56.7645 22.396 56.7766C22.3689 56.7886 22.3395 56.7948 22.3099 56.7946H21.5754C21.5447 56.7944 21.5144 56.7882 21.4862 56.7761C21.458 56.7641 21.4324 56.7466 21.4111 56.7246C21.3888 56.7047 21.3708 56.6804 21.3585 56.6531C21.3461 56.6259 21.3396 56.5964 21.3393 56.5665L21.2872 53.2084C21.2872 52.7451 21.1429 52.383 20.8544 52.122C20.5766 51.8646 20.2103 51.7241 19.8317 51.7296C19.4513 51.7249 19.0834 51.8652 18.8027 52.122C18.5124 52.3812 18.3672 52.7433 18.3672 53.2084L18.3277 56.5692C18.3272 56.5997 18.3208 56.6298 18.3086 56.6578C18.2965 56.6858 18.279 56.7111 18.257 56.7323C18.2351 56.7535 18.2092 56.7702 18.1808 56.7813C18.1524 56.7925 18.1221 56.7979 18.0916 56.7973H17.358C17.3273 56.7972 17.2969 56.791 17.2687 56.779C17.2405 56.7669 17.215 56.7494 17.1937 56.7273C17.1714 56.7074 17.1534 56.683 17.1411 56.6558C17.1287 56.6286 17.1222 56.5991 17.1218 56.5692L17.0823 53.0674L17.0958 50.8945C17.0947 50.8635 17.1005 50.8326 17.113 50.8042C17.1254 50.7757 17.1441 50.7505 17.1676 50.7302C17.2124 50.689 17.2711 50.6662 17.332 50.6665H18.1185C18.1476 50.6662 18.1765 50.6717 18.2034 50.6827C18.2304 50.6936 18.2549 50.7098 18.2756 50.7302C18.3182 50.7704 18.3458 50.824 18.3538 50.882V51.2097C18.686 50.7721 19.1798 50.5533 19.8353 50.5533C20.4297 50.5533 20.9343 50.6776 21.3491 50.926C21.747 51.1561 22.0703 51.4958 22.2802 51.9047C22.4853 52.3085 22.5906 52.7555 22.5873 53.2084L22.5325 56.5665Z" fill="#2F2F2F"/>
<path d="M30.3467 49.6681C30.3647 50.5695 30.3734 51.416 30.3728 52.2073C30.3728 53.0082 30.3641 53.547 30.3467 53.8235C30.325 54.3567 30.1596 54.8742 29.8681 55.3212C29.5762 55.7731 29.1746 56.1437 28.7009 56.3987C28.2088 56.6635 27.6581 56.8006 27.0993 56.7973C26.5405 56.794 25.9915 56.6505 25.5026 56.3798C25.0178 56.1113 24.6129 55.719 24.329 55.2431C24.0429 54.7708 23.8931 54.2285 23.8963 53.6763C23.8924 53.1259 24.0423 52.5855 24.329 52.1157C24.6205 51.637 25.0308 51.2417 25.5201 50.9683C26.0093 50.6948 26.561 50.5525 27.1215 50.5552C27.4854 50.5604 27.8444 50.6399 28.1765 50.7886C28.4946 50.9123 28.7762 51.1143 28.9954 51.3759C29.0014 51.3837 29.01 51.3893 29.0196 51.3916C29.0293 51.3939 29.0394 51.3927 29.0484 51.3884C29.056 51.3855 29.0626 51.3804 29.0672 51.3736C29.0719 51.3669 29.0744 51.3589 29.0744 51.3507L29.0879 47.9145C29.0875 47.8807 29.0942 47.8473 29.1077 47.8163C29.1211 47.7854 29.141 47.7576 29.166 47.7349C29.19 47.7105 29.2187 47.6912 29.2503 47.6781C29.2819 47.665 29.3158 47.6583 29.3501 47.6586H30.0414C30.109 47.6593 30.1736 47.6867 30.221 47.7349C30.246 47.7576 30.2659 47.7854 30.2793 47.8163C30.2928 47.8473 30.2995 47.8807 30.2991 47.9145C30.3135 48.182 30.3294 48.7666 30.3467 49.6681ZM28.7844 52.7442C28.6109 52.4637 28.3698 52.2312 28.0831 52.0681C27.789 51.9027 27.4572 51.8158 27.1197 51.8158C26.7822 51.8158 26.4504 51.9027 26.1562 52.0681C25.8691 52.231 25.6277 52.4635 25.4541 52.7442C25.2811 53.0232 25.1905 53.3453 25.1928 53.6736C25.1912 54.0035 25.2821 54.3273 25.455 54.6083C25.6275 54.8921 25.8719 55.1253 26.1634 55.2844C26.456 55.4474 26.7857 55.5321 27.1206 55.5304C27.4585 55.5336 27.7911 55.4465 28.084 55.2781C28.3707 55.115 28.6118 54.8825 28.7853 54.602C28.9567 54.3225 29.0474 54.001 29.0474 53.6731C29.0474 53.3452 28.9567 53.0238 28.7853 52.7442H28.7844Z" fill="#2F2F2F"/>
<path d="M38.1825 54.8249C38.1825 55.2469 38.1736 55.6169 38.1565 55.9374C38.1394 56.2579 38.126 56.4591 38.117 56.5435C38.1175 56.5773 38.1107 56.6109 38.097 56.6419C38.0834 56.6728 38.0633 56.7005 38.038 56.7231C38.012 56.7484 37.9812 56.7682 37.9474 56.7813C37.9137 56.7944 37.8776 56.8005 37.8413 56.7994H37.1473C37.1152 56.7986 37.0836 56.7914 37.0543 56.7783C37.025 56.7652 36.9986 56.7464 36.9767 56.7231C36.9261 56.676 36.8942 56.6122 36.8869 56.5435L36.8734 55.9877C36.874 55.9802 36.8724 55.9727 36.8689 55.966C36.8654 55.9594 36.8601 55.9538 36.8537 55.95C36.8402 55.941 36.8249 55.95 36.8079 55.9625C36.5936 56.2281 36.3134 56.4327 35.9953 56.5561C35.6618 56.7092 35.3 56.7911 34.9331 56.7967C34.3643 56.8009 33.8042 56.657 33.3079 56.3792C32.8206 56.1119 32.4133 55.7195 32.128 55.2424C31.8419 54.7701 31.6922 54.2278 31.6953 53.6756C31.6914 53.1253 31.8413 52.5848 32.128 52.1151C32.4158 51.6398 32.8224 51.2477 33.3079 50.9774C33.8031 50.6963 34.3636 50.5504 34.9331 50.5545C35.4754 50.5517 36.0097 50.6849 36.4872 50.942C36.9647 51.1991 37.3701 51.5719 37.6663 52.0262C37.9577 52.4732 38.1231 52.9906 38.1448 53.5239C38.17 53.986 38.1825 54.4197 38.1825 54.8249ZM35.8947 55.2801C36.1818 55.117 36.4214 54.8818 36.5897 54.5977C36.76 54.3139 36.8485 53.9886 36.8456 53.6576C36.8478 53.3293 36.7568 53.0071 36.5834 52.7283C36.4109 52.4486 36.1695 52.218 35.8821 52.0585C35.5879 51.8941 35.2558 51.8093 34.9187 51.8125C34.585 51.8107 34.2568 51.8977 33.9678 52.0648C33.6812 52.2279 33.44 52.4604 33.2666 52.7409C33.0952 53.0204 33.0045 53.3419 33.0045 53.6698C33.0045 53.9976 33.0952 54.3191 33.2666 54.5986C33.44 54.8792 33.6812 55.1116 33.9678 55.2748C34.262 55.4402 34.5938 55.5271 34.9313 55.5271C35.2688 55.5271 35.6006 55.4402 35.8947 55.2748V55.2801Z" fill="#2F2F2F"/>
<path d="M40.9392 47.3711C40.96 47.3905 40.9766 47.414 40.9878 47.4402C40.9991 47.4663 41.0049 47.4944 41.0048 47.5229L41.0443 49.5449V54.5489L41.0048 56.5826C41.0049 56.6111 40.9992 56.6392 40.9879 56.6654C40.9766 56.6915 40.96 56.715 40.9392 56.7344C40.9186 56.7549 40.894 56.7711 40.8671 56.7821C40.8401 56.793 40.8112 56.7985 40.7821 56.7981H40.0081C39.979 56.7985 39.9501 56.793 39.9231 56.7821C39.8961 56.7711 39.8716 56.7549 39.851 56.7344C39.83 56.7151 39.8133 56.6917 39.802 56.6655C39.7907 56.6393 39.785 56.6111 39.7854 56.5826L39.7459 54.5489V49.5404L39.7854 47.5184C39.7851 47.4899 39.7907 47.4617 39.802 47.4355C39.8133 47.4094 39.83 47.3859 39.851 47.3666C39.893 47.3257 39.9495 47.3031 40.0081 47.3038H40.7821C40.8114 47.3041 40.8404 47.3101 40.8674 47.3217C40.8944 47.3333 40.9188 47.3501 40.9392 47.3711Z" fill="#2F2F2F"/>
<path d="M44.07 47.3711C44.091 47.3904 44.1077 47.4139 44.119 47.44C44.1302 47.4662 44.1359 47.4944 44.1356 47.5229L44.1751 49.5449V54.5489L44.1365 56.5781C44.1369 56.6066 44.1312 56.6349 44.1199 56.661C44.1086 56.6872 44.0919 56.7106 44.0709 56.7299C44.0503 56.7504 44.0258 56.7666 43.9988 56.7776C43.9718 56.7885 43.9429 56.794 43.9138 56.7936H43.1398C43.1106 56.794 43.0815 56.7886 43.0544 56.7777C43.0272 56.7667 43.0026 56.7505 42.9818 56.7299C42.9608 56.7106 42.9441 56.6872 42.9328 56.661C42.9215 56.6349 42.9158 56.6066 42.9162 56.5781L42.8794 54.5444V49.5404L42.918 47.5184C42.9177 47.4899 42.9234 47.4617 42.9347 47.4355C42.9459 47.4094 42.9626 47.3859 42.9836 47.3666C43.0259 47.3256 43.0827 47.303 43.1416 47.3038H43.9147C43.9733 47.3048 44.0292 47.329 44.07 47.3711Z" fill="#2F2F2F"/>
<path d="M52.2486 54.8249C52.2486 55.2469 52.2396 55.6169 52.2217 55.9374C52.2037 56.2579 52.1911 56.4591 52.1831 56.5435C52.1833 56.5773 52.1764 56.6108 52.1628 56.6417C52.1491 56.6727 52.1291 56.7004 52.104 56.7231C52.0781 56.7484 52.0473 56.7682 52.0135 56.7813C51.9797 56.7944 51.9436 56.8005 51.9074 56.7994H51.2124C51.1477 56.7975 51.0864 56.77 51.0418 56.7231C50.9918 56.6755 50.9601 56.612 50.952 56.5435L50.9395 55.9877C50.9398 55.9802 50.9382 55.9728 50.9347 55.9662C50.9312 55.9595 50.9261 55.9539 50.9197 55.95C50.9062 55.941 50.891 55.95 50.8739 55.9625C50.6991 56.199 50.428 56.3968 50.0604 56.5561C49.7272 56.7092 49.3658 56.7911 48.9991 56.7967C48.43 56.8009 47.8697 56.657 47.373 56.3792C46.8862 56.1112 46.4791 55.719 46.1932 55.2424C45.9074 54.77 45.7579 54.2277 45.7613 53.6756C45.7572 53.1254 45.9067 52.5849 46.1932 52.1151C46.4814 51.6402 46.888 51.2482 47.373 50.9774C47.8686 50.6963 48.4294 50.5504 48.9991 50.5545C49.5414 50.5517 50.0758 50.6849 50.5533 50.942C51.0308 51.1991 51.4362 51.5719 51.7323 52.0262C52.0238 52.4732 52.1891 52.9906 52.2109 53.5239C52.236 53.986 52.2486 54.4197 52.2486 54.8249ZM49.9608 55.2801C50.2479 55.117 50.4874 54.8818 50.6557 54.5977C50.8257 54.3139 50.914 53.9885 50.9107 53.6576C50.9133 53.3293 50.8224 53.0069 50.6485 52.7283C50.4764 52.4484 50.2348 52.2177 49.9473 52.0585C49.6525 51.8951 49.32 51.8115 48.983 51.8161C48.6495 51.8144 48.3216 51.9014 48.033 52.0684C47.7459 52.231 47.5047 52.4636 47.3317 52.7445C47.1603 53.024 47.0696 53.3455 47.0696 53.6734C47.0696 54.0012 47.1603 54.3227 47.3317 54.6022C47.5047 54.8831 47.7459 55.1157 48.033 55.2783C48.3271 55.4438 48.6589 55.5307 48.9964 55.5307C49.3339 55.5307 49.6657 55.4438 49.9599 55.2783L49.9608 55.2801Z" fill="#2F2F2F"/>
<path d="M62.4703 55.6765C62.4917 55.694 62.5088 55.7163 62.5201 55.7415C62.5315 55.7667 62.5369 55.7943 62.5359 55.8219V56.5402C62.5363 56.5687 62.5306 56.597 62.5193 56.6231C62.508 56.6493 62.4913 56.6727 62.4703 56.692C62.4496 56.7124 62.4251 56.7285 62.3981 56.7393C62.3711 56.7501 62.3423 56.7553 62.3132 56.7548L57.6199 56.7934C57.5908 56.7939 57.5619 56.7885 57.5349 56.7775C57.5079 56.7666 57.4834 56.7503 57.4628 56.7297C57.4418 56.7105 57.4251 56.687 57.4138 56.6608C57.4025 56.6347 57.3968 56.6064 57.3972 56.5779L57.3577 54.6196V50.1212L57.3972 48.1629C57.3968 48.1344 57.4025 48.1062 57.4138 48.08C57.4251 48.0539 57.4418 48.0304 57.4628 48.0111C57.4834 47.9906 57.5079 47.9745 57.5349 47.9637C57.5619 47.9529 57.5908 47.9477 57.6199 47.9483H58.4065C58.4355 47.9478 58.4644 47.9531 58.4914 47.9639C58.5184 47.9747 58.5429 47.9907 58.5636 48.0111C58.5846 48.0304 58.6013 48.0539 58.6126 48.08C58.6239 48.1062 58.6295 48.1344 58.6291 48.1629L58.6686 50.1212V54.6196L58.6426 55.5804L62.3132 55.6181C62.371 55.6174 62.427 55.6382 62.4703 55.6765Z" fill="#46D5CA"/>
<path d="M69.8255 54.8249C69.8255 55.2469 69.8174 55.6169 69.7995 55.9374C69.7815 56.258 69.7689 56.4591 69.76 56.5435C69.7604 56.5772 69.7536 56.6107 69.7402 56.6416C69.7267 56.6726 69.7068 56.7004 69.6818 56.7231C69.629 56.7736 69.5583 56.801 69.4852 56.7994H68.7902C68.7255 56.7975 68.6642 56.77 68.6196 56.7231C68.5697 56.6755 68.5379 56.612 68.5299 56.5435L68.5164 55.9877C68.5169 55.9803 68.5155 55.9729 68.5121 55.9662C68.5088 55.9596 68.5038 55.954 68.4975 55.95C68.4841 55.941 68.4688 55.95 68.4508 55.9625C68.2766 56.199 68.0073 56.3968 67.6427 56.5561C67.3095 56.7091 66.9481 56.791 66.5814 56.7967C66.0123 56.8011 65.4519 56.6572 64.9553 56.3792C64.468 56.1119 64.0607 55.7195 63.7755 55.2424C63.4894 54.7701 63.3396 54.2278 63.3427 53.6756C63.3389 53.1253 63.4888 52.5848 63.7755 52.1151C64.0633 51.6398 64.4699 51.2477 64.9553 50.9774C65.4508 50.6962 66.0117 50.5503 66.5814 50.5545C67.1237 50.5517 67.6581 50.6849 68.1356 50.942C68.6131 51.1991 69.0185 51.5719 69.3146 52.0262C69.6059 52.4733 69.7712 52.9907 69.7932 53.5239C69.8153 53.986 69.8261 54.4197 69.8255 54.8249ZM67.5386 55.2801C67.8257 55.117 68.0652 54.8818 68.2335 54.5977C68.4033 54.3137 68.4915 53.9885 68.4886 53.6577C68.4912 53.3293 68.4002 53.0069 68.2264 52.7283C68.0509 52.4456 67.8055 52.2128 67.514 52.0524C67.2224 51.892 66.8944 51.8093 66.5617 51.8125C66.2282 51.8106 65.9003 51.8977 65.6117 52.0648C65.3246 52.2276 65.0831 52.4601 64.9095 52.7409C64.7381 53.0204 64.6474 53.3419 64.6474 53.6698C64.6474 53.9977 64.7381 54.3191 64.9095 54.5986C65.0831 54.8794 65.3246 55.1119 65.6117 55.2748C65.9059 55.4402 66.2377 55.5271 66.5751 55.5271C66.9126 55.5271 67.2444 55.4402 67.5386 55.2748V55.2801Z" fill="#46D5CA"/>
<path d="M71.1243 51.9799C71.1243 51.2048 71.133 50.3966 71.1504 49.5556C71.1677 48.7146 71.1809 48.1672 71.1899 47.9134C71.1901 47.8786 71.1984 47.8443 71.2139 47.8132C71.2295 47.782 71.252 47.7549 71.2797 47.7338C71.3307 47.685 71.3985 47.6576 71.4691 47.6575H72.1641C72.1976 47.6576 72.2307 47.6645 72.2616 47.6776C72.2924 47.6907 72.3203 47.7098 72.3437 47.7338C72.3689 47.7563 72.3891 47.784 72.4027 47.815C72.4163 47.846 72.4232 47.8795 72.4227 47.9134L72.4361 51.3496C72.4359 51.3579 72.4383 51.366 72.443 51.3727C72.4477 51.3795 72.4544 51.3846 72.4622 51.3873C72.471 51.3916 72.481 51.3927 72.4905 51.3904C72.5 51.3881 72.5084 51.3826 72.5143 51.3748C72.7339 51.1133 73.0158 50.9114 73.334 50.7875C73.6661 50.6387 74.0252 50.5592 74.3891 50.5541C74.9491 50.5516 75.5003 50.6937 75.9892 50.9668C76.4781 51.2399 76.8882 51.6347 77.1797 52.1128C77.4664 52.5826 77.6163 53.123 77.6125 53.6734C77.6156 54.2256 77.4658 54.7679 77.1797 55.2402C76.8956 55.7159 76.4907 56.1081 76.0062 56.3769C75.5173 56.6476 74.9682 56.7911 74.4094 56.7944C73.8506 56.7977 73.2999 56.6606 72.8079 56.3958C72.3342 56.1407 71.9327 55.7701 71.6406 55.3183C71.3506 54.872 71.1859 54.356 71.1638 53.8242C71.1375 53.3699 71.1243 52.7551 71.1243 51.9799ZM73.4184 52.0616C73.1278 52.2194 72.8854 52.4531 72.7172 52.7378C72.5477 53.0202 72.4592 53.3439 72.4613 53.6734C72.4587 54.0015 72.5496 54.3235 72.7235 54.6018C72.8967 54.8825 73.1379 55.115 73.4247 55.2779C73.7176 55.4464 74.0503 55.5335 74.3882 55.5302C74.722 55.5324 75.0502 55.4453 75.339 55.2779C75.6257 55.1148 75.8668 54.8823 76.0403 54.6018C76.2117 54.3223 76.3024 54.0008 76.3024 53.6729C76.3024 53.345 76.2117 53.0236 76.0403 52.744C75.8668 52.4635 75.6257 52.231 75.339 52.0679C75.0456 51.8998 74.7128 51.8127 74.3747 51.8156C74.0401 51.8139 73.7107 51.8986 73.4184 52.0616Z" fill="#46D5CA"/>
<path d="M38.0606 0.198665C33.7171 -0.256897 33.1276 0.165419 32.8814 0.523039C32.4771 1.10799 32.9084 1.63633 32.903 3.47116C32.903 3.47116 32.8985 5.21613 32.4007 6.85957C31.7196 9.10592 29.8111 10.0539 28.1434 11.4008C24.4216 14.4082 22.6542 18.812 22.1061 21.5472C21.2309 25.9051 22.7297 29.5649 23.1933 30.6557C23.2266 30.7348 23.2634 30.8147 23.2985 30.8938C23.3353 30.7689 23.3748 30.6449 23.4162 30.52C23.6309 29.8731 23.825 29.2288 24.0083 28.572C24.1842 27.8925 24.4391 27.236 24.7676 26.6158C24.8475 26.4712 24.9374 26.3328 25.0308 26.1971C25.1563 25.8283 25.3275 25.4766 25.5403 25.1503C25.224 20.4024 27.2475 15.446 31.7654 12.0882C34.134 10.3306 35.2697 8.14628 35.1125 5.23141C35.0496 4.0633 35.0487 2.89519 35.0226 1.69384C42.0151 1.6579 44.0081 1.47639 44.0189 1.27153C44.0287 1.00196 40.6763 0.538314 39.6304 0.39275C39.0167 0.308287 38.4865 0.245389 38.0606 0.198665Z" fill="#00ABA7"/>
<mask id="mask0_39_847" style="mask-type:luminance" maskUnits="userSpaceOnUse" x="21" y="7" width="35" height="35">
<path d="M38.7894 41.2761C48.0817 41.2761 55.6146 33.7432 55.6146 24.4509C55.6146 15.1586 48.0817 7.62567 38.7894 7.62567C29.4971 7.62567 21.9642 15.1586 21.9642 24.4509C21.9642 33.7432 29.4971 41.2761 38.7894 41.2761Z" fill="white"/>
</mask>
<g mask="url(#mask0_39_847)">
<path d="M16.7117 12.8347C17.8304 11.3009 19.5619 10.7501 19.7147 10.7115C22.0428 10.1202 24.8247 10.9316 26.5193 12.7152C29.0433 15.3713 27.0144 17.9816 29.3129 21.4311C31.11 24.1267 34.6547 25.8942 38.1321 25.6183C40.8044 25.4063 43.5278 23.8814 45.0455 21.5749C47.2838 18.1667 45.3483 15.3363 47.866 12.9893C49.15 11.7915 51.2059 11.0799 52.9365 11.6019C54.3292 12.0234 55.1289 13.1492 55.6025 13.8142C62.9103 24.0692 60.3046 32.0914 60.3046 32.0914C57.4292 40.9187 47.5363 43.4319 42.7021 44.6602C38.5302 45.7196 33.4112 47.0198 28.6615 44.4859C25.3422 42.7176 23.3484 37.8933 19.3597 28.2421C15.3612 18.5746 15.0818 15.0694 16.7117 12.8347Z" fill="#00ABA7"/>
<g opacity="0.8">
<path d="M20.973 32.112C22.0836 30.0364 22.7809 29.1603 23.8816 28.6032C24.2168 28.4334 25.4091 27.8772 27.6321 28.154C31.5902 28.6535 32.0188 30.9475 35.4036 31.6071C38.766 32.263 41.688 30.6501 42.6513 30.0481C43.2928 29.6473 45.6776 28.0605 46.8798 25.0675C47.6732 23.0907 47.6741 21.1902 47.667 20.4031C47.6463 17.9645 46.9598 16.7703 47.6732 14.7818C47.853 14.2778 48.1342 13.4978 48.774 12.8949C50.7966 10.981 54.8418 12.2983 55.9066 12.6442C61.2979 14.4 66.0008 21.0905 67.1384 27.7559C69.1916 39.8036 59.9411 53.9637 47.2554 56.9586C40.8434 58.4735 34.3164 56.9244 28.9539 53.2404C26.7075 51.6958 24.7757 49.6085 20.9452 45.3844C18.7887 43.0033 18.2181 42.1308 17.9692 40.9097C17.4984 38.6067 18.6566 36.4421 20.973 32.112Z" fill="#58E0D3"/>
</g>
</g>
<path d="M38.2802 8.46862C39.435 8.46862 40.3711 7.53249 40.3711 6.37771C40.3711 5.22294 39.435 4.2868 38.2802 4.2868C37.1254 4.2868 36.1893 5.22294 36.1893 6.37771C36.1893 7.53249 37.1254 8.46862 38.2802 8.46862Z" fill="#58E0D3"/>
<path d="M41.5342 16.8092C43.5465 16.8092 45.1778 15.1779 45.1778 13.1656C45.1778 11.1533 43.5465 9.52197 41.5342 9.52197C39.5219 9.52197 37.8906 11.1533 37.8906 13.1656C37.8906 15.1779 39.5219 16.8092 41.5342 16.8092Z" fill="#00ABA7"/>
<path d="M42.8089 7.34429C43.3272 7.34429 43.7474 6.92411 43.7474 6.40579C43.7474 5.88747 43.3272 5.46729 42.8089 5.46729C42.2906 5.46729 41.8704 5.88747 41.8704 6.40579C41.8704 6.92411 42.2906 7.34429 42.8089 7.34429Z" fill="#00ABA7"/>
</svg>
