<svg width="133" height="37" viewBox="0 0 133 37" fill="none" xmlns="http://www.w3.org/2000/svg">
<path fill-rule="evenodd" clip-rule="evenodd" d="M35.5375 9.12352L35.3382 9.25863L35.3607 20.0078C40.0419 19.9427 40.3988 19.9186 40.9901 19.7609C41.3571 19.6634 41.8825 19.464 42.1577 19.3181C42.4329 19.173 42.9266 18.7902 43.2544 18.4674C43.7164 18.0129 43.9282 17.721 44.1934 17.1723C44.3811 16.782 44.5946 16.1823 44.668 15.8379C44.7639 15.3875 44.7905 14.933 44.7639 14.2116C44.733 13.3835 44.6838 13.0883 44.4811 12.502C44.3469 12.1117 44.1008 11.5863 43.9349 11.3344C43.7698 11.0825 43.4145 10.6681 43.1459 10.4145C42.8666 10.151 42.3904 9.82156 42.0326 9.64476C41.6881 9.47463 41.1819 9.2728 40.9067 9.19691C40.5139 9.0885 39.9059 9.05097 38.0712 9.02345C36.0154 8.99259 35.7118 9.00426 35.5375 9.12352ZM37.4599 11.07L38.891 11.0984C40.2804 11.1251 40.3388 11.1334 40.855 11.3761C41.1986 11.5379 41.5314 11.7814 41.7932 12.0641C42.0167 12.3052 42.2694 12.6613 42.3545 12.8564C42.4396 13.0516 42.5521 13.4077 42.6047 13.6487C42.6572 13.8897 42.6998 14.2742 42.6998 14.5035C42.6998 14.7329 42.6572 15.1173 42.6047 15.3584C42.5521 15.5994 42.4396 15.9555 42.3545 16.1506C42.2694 16.3458 42.0209 16.6969 41.8032 16.9312C41.5856 17.1664 41.2386 17.4433 41.0318 17.5467C40.825 17.6501 40.4497 17.7811 40.1978 17.8369C39.946 17.8928 39.2229 17.9637 37.4449 18.0479L37.4524 14.5594L37.4599 11.07ZM16.5703 9.51966C16.4436 9.63642 15.5137 11.6155 14.1093 14.7529C12.8675 17.5284 11.8217 19.8694 11.785 19.9553C11.7208 20.1037 11.765 20.1095 12.6915 20.0803C13.5205 20.0537 13.7006 20.0228 13.9008 19.8744C14.0659 19.7518 14.2852 19.3598 14.6363 18.56L15.1367 17.4208L20.1406 17.4175C20.9904 19.3523 21.2123 19.7493 21.3766 19.8727C21.5776 20.0236 21.7527 20.0537 22.5858 20.0795C23.5074 20.1087 23.5574 20.102 23.5074 19.9544C23.4782 19.8685 22.4349 17.5284 21.1889 14.7529C19.7678 11.5879 18.8471 9.63725 18.7187 9.51966C18.5344 9.35036 18.431 9.33202 17.6437 9.33202C16.8564 9.33202 16.7538 9.35036 16.5703 9.51966ZM16.8556 13.5194C17.2859 12.5437 17.6604 11.7739 17.6887 11.8098C17.7171 11.8465 18.0823 12.6638 18.501 13.627C18.9197 14.5903 19.2624 15.4067 19.2633 15.4409C19.2641 15.4759 18.5335 15.5035 17.6387 15.5035C16.3769 15.5035 16.0191 15.4801 16.0433 15.3992C16.0599 15.3425 16.4261 14.496 16.8556 13.5194ZM32.1499 9.44627C32.0123 9.50632 31.8338 9.65477 31.7538 9.77736C31.6228 9.97668 31.6062 10.3019 31.587 12.9473L31.5661 15.8946L26.1453 9.41792C24.8951 9.41625 24.6007 9.45128 24.5348 9.51966C24.4573 9.59972 24.4331 10.8582 24.4348 14.8571L24.4356 20.0904C25.3405 20.0904 25.7249 20.0412 25.8742 19.9811C26.0235 19.9211 26.2111 19.7801 26.292 19.6684C26.4255 19.4832 26.4388 19.1863 26.438 16.2749C26.438 14.521 26.4655 13.0833 26.4997 13.0816C26.5339 13.0791 27.8533 14.6461 29.4311 16.5635L32.3 20.0487C33.0773 20.0854 33.2975 20.0503 33.4217 19.9669L33.6094 19.8402V9.33202C32.672 9.33702 32.2875 9.38706 32.1499 9.44627ZM49.8019 9.47796C49.7044 9.56053 48.6135 11.8982 47.3108 14.8154C46.0365 17.6701 45.0124 20.0261 45.0349 20.0503C45.0583 20.0753 45.4235 20.0945 45.848 20.0929C46.2992 20.0912 46.7321 20.0437 46.8905 19.9786C47.0398 19.9169 47.2183 19.7976 47.2866 19.7142C47.3559 19.6308 47.6211 19.0904 47.8771 18.5133L48.3425 17.4633H53.3772C54.3521 19.6367 54.4539 19.801 54.7091 19.9369C54.9392 20.0578 55.1836 20.0912 55.8558 20.0912C56.3704 20.0904 56.7106 20.057 56.7106 20.007C56.7106 19.9611 55.7399 17.7569 54.5523 15.1073C53.3655 12.4586 52.3164 10.1226 52.2205 9.9158C52.1254 9.70981 51.9519 9.49381 51.8352 9.43626C51.7092 9.37455 51.2906 9.33202 50.8002 9.33202C50.1372 9.33202 49.942 9.36037 49.8019 9.47796ZM50.0455 13.5678C50.4775 12.572 50.8578 11.7839 50.8903 11.8164C50.922 11.849 51.3064 12.6921 52.5407 15.5035H50.8728C49.9554 15.5035 49.2173 15.4759 49.2323 15.4409C49.2482 15.4067 49.6135 14.5636 50.0455 13.5678ZM79.0746 9.47796C78.977 9.55969 77.8912 11.8773 76.6035 14.7529C75.3392 17.5742 74.3059 19.9294 74.3068 19.9861C74.3076 20.062 74.5228 20.0904 75.0999 20.0904C75.5736 20.0904 76.0014 20.0453 76.1632 19.9786C76.3125 19.9169 76.4909 19.7976 76.5593 19.7142C76.6286 19.6308 76.8938 19.0904 77.1498 18.5133L77.6152 17.4633H82.6499C83.6248 19.6367 83.7266 19.801 83.9818 19.9369C84.2119 20.0578 84.4563 20.0912 85.1285 20.0912C85.643 20.0904 85.9833 20.057 85.9833 20.007C85.9833 19.9611 85.0034 17.7377 83.8058 15.0656C82.6082 12.3944 81.559 10.0576 81.474 9.8741C81.3889 9.69063 81.2246 9.49381 81.1079 9.43626C80.9819 9.37455 80.5633 9.33202 80.0729 9.33202C79.4099 9.33202 79.2147 9.36037 79.0746 9.47796ZM79.3532 13.4777C79.766 12.5303 80.1304 11.7822 80.1621 11.8156C80.1946 11.849 80.5791 12.6921 81.8134 15.5035H80.1454C78.5667 15.5035 78.4808 15.496 78.54 15.3525C78.5742 15.2691 78.9403 14.426 79.3532 13.4777ZM0 14.7529V20.0904C1.01495 20.0904 1.34604 20.0437 1.50116 19.9653C1.63877 19.8969 1.79806 19.7559 1.8556 19.6525C1.93233 19.5149 1.97069 18.5417 2.00155 15.9622L2.04325 12.4594C4.37005 15.807 5.12981 16.8303 5.23322 16.892C5.35332 16.9646 5.47341 16.9788 5.56681 16.9329C5.64688 16.8929 6.43665 15.8512 7.32151 14.6186L8.92942 12.376C8.92275 18.9445 8.9411 19.4924 9.04785 19.6525C9.11707 19.7559 9.28636 19.8969 9.42397 19.9653C9.57992 20.0437 9.91101 20.0904 10.2996 20.0904H10.9251V9.41541L8.56164 9.45711C6.35409 12.6321 5.65688 13.6404 5.58766 13.7463C5.4659 13.9348 5.42504 13.8847 3.89886 11.6772L2.33514 9.41541H0V14.7529ZM57.4804 14.4593L57.5029 19.5041L58.0483 20.0487L64.967 20.0904C64.9637 18.8769 64.9295 18.6726 64.8194 18.5367C64.7402 18.4391 64.5909 18.3165 64.4875 18.2656C64.3618 18.2033 63.507 18.1722 61.923 18.1722H59.5462L59.5045 9.90246C58.9765 9.42792 58.924 9.41541 58.2101 9.41541H57.4579L57.4804 14.4593ZM66.3848 14.2942C66.3848 18.2231 66.4065 19.2255 66.4982 19.444C66.5608 19.5933 66.6959 19.7901 66.7993 19.8819C66.9794 20.0428 67.1037 20.0487 70.4588 20.0487H73.9323C73.9323 19.0879 73.8848 18.7768 73.8072 18.6342C73.738 18.5075 73.5787 18.3515 73.4528 18.2881C73.2735 18.1972 72.7063 18.1722 70.8466 18.1722H68.4697V9.9992L67.9693 9.41541H66.3848V14.2942ZM55.1653 23.5789C55.081 23.6631 55.0193 23.7941 55.0276 23.8708C55.036 23.9475 55.1102 24.0101 55.1928 24.0101C55.2753 24.0101 55.3788 23.9717 55.4221 23.9242C55.4763 23.8658 55.5739 23.8658 55.7307 23.9242C55.8566 23.9717 56.0326 24.0101 56.121 24.0101C56.2094 24.0101 56.3403 23.9542 56.4129 23.885C56.4846 23.8166 56.5438 23.6848 56.5438 23.5931C56.5438 23.488 56.4879 23.4263 56.3937 23.4263C56.3111 23.4263 56.2077 23.4671 56.1644 23.5163C56.1077 23.5814 56.0318 23.5814 55.8975 23.5163C55.7941 23.4671 55.6214 23.4263 55.5139 23.4263C55.4054 23.4263 55.2487 23.4947 55.1653 23.5789ZM24.8501 24.372C24.6458 24.4796 24.3656 24.7264 24.2279 24.9216C24.0178 25.2177 23.9711 25.3736 23.9436 25.8732C23.916 26.3761 23.9419 26.5362 24.1104 26.884C24.2521 27.1767 24.4206 27.3668 24.6858 27.532C25.001 27.7279 25.1512 27.7655 25.624 27.7646C25.9334 27.7638 26.2712 27.7213 26.3746 27.6696C26.478 27.6179 26.6465 27.4961 26.7499 27.3985C26.9284 27.2292 26.93 27.2142 26.7916 27.0724C26.7115 26.9907 26.5889 26.9265 26.5206 26.929C26.4513 26.9323 26.3204 26.9899 26.2287 27.0583C26.1369 27.1266 25.9209 27.1817 25.7491 27.1809C25.5773 27.18 25.3238 27.1233 25.1862 27.0541C25.0236 26.9732 24.8743 26.7905 24.76 26.5328C24.6283 26.2376 24.5966 26.0466 24.6349 25.7823C24.6666 25.5629 24.7809 25.3169 24.936 25.1359C25.107 24.9366 25.2854 24.8265 25.4989 24.7898C25.7058 24.754 25.9534 24.784 26.2287 24.8791C26.6273 25.0167 26.6523 25.0167 26.8008 24.8707C26.8867 24.7873 26.9334 24.6722 26.905 24.6147C26.8775 24.5572 26.704 24.4354 26.5206 24.3437C26.3021 24.2344 26.0202 24.1769 25.7041 24.1769C25.3605 24.1769 25.1153 24.2327 24.8501 24.372ZM28.1326 24.372C27.945 24.4788 27.6648 24.7481 27.5105 24.97C27.2503 25.3436 27.2294 25.422 27.2294 26.0191C27.2294 26.6037 27.2536 26.6988 27.4838 27.0266C27.6239 27.2251 27.8866 27.4719 28.0676 27.5737C28.3169 27.7154 28.5329 27.7605 28.9599 27.7613C29.3436 27.763 29.6221 27.7138 29.8356 27.6079C30.0074 27.522 30.2434 27.3435 30.3602 27.2117C30.477 27.0791 30.6229 26.8206 30.6838 26.6371C30.748 26.4461 30.7814 26.0842 30.7638 25.7906C30.7388 25.3861 30.6788 25.201 30.482 24.9208C30.3418 24.7223 30.0666 24.4788 29.8565 24.3695C29.5813 24.2261 29.3461 24.1735 28.9775 24.1752C28.6055 24.1769 28.3853 24.2277 28.1326 24.372ZM28.5513 24.8374C28.6497 24.8007 28.834 24.769 28.9599 24.7656C29.0859 24.7631 29.3202 24.8174 29.4812 24.8857C29.6513 24.9591 29.8315 25.1234 29.914 25.2819C29.9916 25.4312 30.055 25.7406 30.055 25.9699C30.055 26.1993 29.9916 26.5087 29.914 26.6579C29.8365 26.8072 29.6605 26.9857 29.5229 27.0541C29.3853 27.1233 29.1409 27.1792 28.9808 27.1792C28.8198 27.1792 28.5763 27.1233 28.4387 27.0541C28.3011 26.9857 28.1276 26.8072 28.0526 26.6579C27.9583 26.4686 27.9266 26.2326 27.9483 25.8732C27.9725 25.4829 28.0276 25.3036 28.176 25.1309C28.2844 25.0058 28.4529 24.8732 28.5513 24.8374ZM31.2792 25.9649L31.2742 27.763H31.858C31.858 25.9082 31.888 25.5187 31.9439 25.5321C31.9906 25.5437 32.2308 25.9282 32.4777 26.3869C32.7237 26.8456 32.9856 27.2584 33.059 27.3043C33.149 27.361 33.2391 27.3585 33.3383 27.2968C33.4184 27.2467 33.6903 26.8264 33.943 26.3619C34.1948 25.8982 34.4309 25.4887 34.4667 25.452C34.5017 25.4162 34.5301 25.9207 34.5293 26.5745L34.5268 27.763H35.1105V24.1769L34.4192 24.2186C33.501 25.9316 33.2149 26.4278 33.1924 26.4269C33.169 26.4261 32.888 25.929 32.5669 25.3219L31.9831 24.2186L31.2842 24.1677L31.2792 25.9649ZM35.7794 25.4895C35.7802 26.6955 35.7961 26.8297 35.967 27.1283C36.0688 27.3068 36.284 27.5228 36.4449 27.6079C36.6342 27.7088 36.9136 27.7638 37.2372 27.7655C37.62 27.7663 37.8051 27.7229 38.0253 27.577C38.1838 27.4727 38.4006 27.2559 38.5073 27.095C38.69 26.8206 38.7008 26.7272 38.6992 25.4895L38.6967 24.176H38.0295C38.0295 26.1175 37.9953 26.5087 37.9044 26.7197C37.8352 26.8806 37.7042 27.0491 37.6125 27.095C37.5207 27.1408 37.3331 27.1783 37.1955 27.1783C37.0504 27.1783 36.8494 27.0941 36.716 26.9774L36.4866 26.7764L36.4432 24.176H35.7777L35.7794 25.4895ZM39.3638 25.9691V27.7621H39.9476L39.9893 25.4111C41.7532 27.6737 41.8458 27.7646 42.0951 27.7638L42.3662 27.7621V24.176L41.7407 24.2177L41.6573 26.5062C39.9526 24.3345 39.7908 24.1702 39.5932 24.1727L39.3638 24.176V25.9691ZM43.1168 25.9691V27.7621H43.7839V24.176H43.1168V25.9691ZM45.4102 24.2919C45.2726 24.352 45.0357 24.5105 44.8831 24.6431C44.7313 24.7765 44.5495 25.035 44.4803 25.2185C44.3969 25.4378 44.3635 25.7547 44.3819 26.1417C44.4044 26.6154 44.4545 26.7997 44.6388 27.0799C44.7689 27.2776 45.0132 27.5011 45.2017 27.5953C45.4327 27.7113 45.7021 27.7621 46.0774 27.7621C46.3759 27.7621 46.7045 27.7204 46.8071 27.6687C46.9105 27.617 47.0798 27.4953 47.1824 27.3977C47.3609 27.2284 47.3634 27.2134 47.2241 27.0716C47.144 26.9899 47.0315 26.924 46.9739 26.9257C46.9172 26.9273 46.7671 26.9915 46.6403 27.0683C46.4827 27.165 46.2909 27.1967 46.0232 27.1725C45.7805 27.15 45.562 27.0699 45.4394 26.9573C45.3318 26.8581 45.1975 26.6329 45.1408 26.457C45.0841 26.2802 45.0382 26.0425 45.0374 25.9274C45.0374 25.8131 45.1091 25.5688 45.1967 25.3853C45.3001 25.1685 45.4594 25.0008 45.6537 24.9058C45.818 24.8257 46.0557 24.7606 46.1816 24.7606C46.3084 24.7606 46.5236 24.8182 46.6612 24.8882C46.7988 24.9583 46.9489 25.0158 46.9948 25.0158C47.0406 25.0158 47.144 24.9391 47.2241 24.8465C47.305 24.7531 47.3517 24.6389 47.3283 24.593C47.3058 24.5471 47.1365 24.4346 46.9531 24.3428C46.7321 24.2327 46.4585 24.1777 46.1399 24.1794C45.8764 24.181 45.5478 24.2319 45.4102 24.2919ZM48.8454 24.2344C48.8212 24.2711 48.5134 25.0334 48.1615 25.9274C47.8087 26.8222 47.506 27.6012 47.4868 27.6579C47.4643 27.7288 47.5552 27.7638 47.7662 27.7663C47.9388 27.768 48.1215 27.7213 48.1723 27.6621C48.224 27.6028 48.3083 27.4135 48.36 27.2409L48.4542 26.9282L49.9137 26.9265C50.0922 27.4127 50.1856 27.6028 50.2373 27.6621C50.289 27.7213 50.4533 27.768 50.6017 27.7663C50.7602 27.7638 50.8736 27.7188 50.8744 27.6579C50.8753 27.6012 50.5809 26.8031 50.2214 25.8857L49.5676 24.2177C49.0413 24.1785 48.8695 24.1977 48.8454 24.2344ZM48.9296 25.698C49.0514 25.3661 49.1856 25.0934 49.2273 25.0934C49.269 25.0934 49.3808 25.3469 49.475 25.6563C49.5701 25.9666 49.661 26.2668 49.6768 26.3235C49.6977 26.3986 49.5651 26.4278 49.2048 26.4278C48.9296 26.4278 48.7052 26.4002 48.7061 26.3652C48.7069 26.331 48.807 26.0308 48.9296 25.698ZM52.0403 24.2703C51.9261 24.3161 51.7026 24.4546 51.5449 24.578C51.3873 24.7014 51.1913 24.9516 51.1088 25.1351C51.0162 25.3444 50.9595 25.6722 50.9595 26.0108C50.9587 26.4069 51.0095 26.6538 51.1455 26.9257C51.2681 27.17 51.4599 27.3777 51.7067 27.5311C51.9136 27.6596 52.1479 27.7646 52.228 27.7638C52.3289 27.763 52.3606 27.808 52.3306 27.9081C52.3014 28.0073 52.3481 28.0765 52.4765 28.1241L52.6658 28.1941C52.3431 28.2859 52.2397 28.3759 52.228 28.4543C52.2113 28.5686 52.2763 28.597 52.5616 28.5995C52.8168 28.6011 52.9569 28.5544 53.062 28.4327C53.1729 28.3042 53.1879 28.2225 53.1245 28.0957C53.0786 28.004 52.9761 27.8931 52.8952 27.848C52.7726 27.7805 52.7851 27.7671 52.9786 27.7646C53.1053 27.7638 53.293 27.7204 53.3956 27.6687C53.499 27.617 53.6683 27.4953 53.7708 27.3977C53.9493 27.2284 53.9518 27.2134 53.8125 27.0716C53.7325 26.9899 53.6199 26.924 53.5623 26.9257C53.5056 26.9273 53.3555 26.9915 53.2288 27.0683C53.072 27.1642 52.8801 27.1967 52.6183 27.1725C52.4081 27.1533 52.1671 27.0808 52.0829 27.0116C51.9986 26.9432 51.8569 26.718 51.7676 26.5112C51.6492 26.2393 51.6192 26.0383 51.6559 25.7814C51.6901 25.5463 51.7985 25.3277 51.9778 25.1301C52.1729 24.9166 52.3431 24.8199 52.5824 24.7848C52.8076 24.7523 53.0111 24.7815 53.2079 24.8749C53.3689 24.9516 53.5373 25.0142 53.5832 25.015C53.6291 25.015 53.7325 24.9391 53.8125 24.8465C53.8934 24.7531 53.9401 24.6389 53.9168 24.593C53.8943 24.5471 53.725 24.4346 53.5415 24.3428C53.318 24.2311 53.0503 24.1777 52.7284 24.1819C52.4648 24.1844 52.1554 24.2244 52.0403 24.2703ZM55.4355 24.2344C55.4129 24.2711 55.1085 25.0242 54.7599 25.9065C54.4113 26.7897 54.1253 27.5687 54.1253 27.637C54.1253 27.7221 54.2129 27.7638 54.3963 27.7663C54.5456 27.768 54.7099 27.7213 54.7616 27.6621C54.8125 27.6028 54.9067 27.4127 54.9701 27.2401L55.0844 26.9265H56.5021C56.6806 27.4127 56.774 27.6028 56.8257 27.6621C56.8774 27.7213 57.035 27.768 57.1768 27.7663C57.3178 27.7638 57.4495 27.7438 57.4687 27.7204C57.4879 27.6971 57.201 26.8998 56.8324 25.9482L56.161 24.2177C55.6314 24.1785 55.4588 24.1977 55.4355 24.2344ZM55.5422 25.6563C55.6481 25.3469 55.7724 25.0934 55.8191 25.0934C55.8658 25.0934 55.9792 25.3469 56.071 25.6563C56.1627 25.9666 56.2503 26.2668 56.2661 26.3235C56.2861 26.3986 56.1535 26.4278 55.7932 26.4278C55.4338 26.4278 55.3012 26.3986 55.3212 26.3235C55.3371 26.2668 55.4363 25.9666 55.5422 25.6563ZM58.4686 24.3637C58.2652 24.4671 58.0166 24.6639 57.9157 24.8015C57.8148 24.9391 57.6855 25.2018 57.628 25.3853C57.5705 25.5688 57.5371 25.9316 57.5546 26.1909C57.5788 26.5479 57.648 26.7497 57.8407 27.0249C57.9808 27.2242 58.2435 27.4711 58.4244 27.5737C58.6746 27.7146 58.8906 27.7596 59.3168 27.7613C59.7013 27.7621 59.9798 27.7129 60.1925 27.607C60.3651 27.5211 60.6011 27.3435 60.7179 27.2109C60.8346 27.0783 60.9798 26.8197 61.0415 26.6363C61.1049 26.4461 61.1391 26.0833 61.1207 25.7898C61.0957 25.3853 61.0365 25.2002 60.8388 24.9199C60.6995 24.7214 60.4235 24.4779 60.2133 24.3687C59.9398 24.2252 59.7038 24.1735 59.3377 24.1744C58.9865 24.176 58.7272 24.2327 58.4686 24.3637ZM58.8373 24.8866C58.9749 24.819 59.1909 24.7631 59.3168 24.7623C59.4436 24.7606 59.6687 24.8157 59.8172 24.8841C59.9665 24.9516 60.1608 25.1301 60.2484 25.2802C60.3501 25.452 60.4077 25.7055 60.4068 25.9691C60.406 26.1984 60.3434 26.5087 60.2675 26.6571C60.1925 26.8064 60.0173 26.9849 59.8797 27.0533C59.7421 27.1225 59.4986 27.1783 59.3377 27.1783C59.1775 27.1783 58.9332 27.1225 58.7956 27.0533C58.658 26.9849 58.4837 26.8064 58.4086 26.6571C58.3327 26.5087 58.2702 26.1984 58.2693 25.9691C58.2677 25.7055 58.326 25.4528 58.427 25.2802C58.5154 25.1309 58.6997 24.9533 58.8373 24.8866ZM64.1956 24.3045C64.0697 24.372 63.9287 24.5013 63.8828 24.593C63.837 24.6847 63.7994 24.9099 63.7994 25.0934C63.7994 25.2769 63.837 25.5021 63.8828 25.5938C63.9529 25.7339 63.912 25.8123 63.6368 26.0733C63.3691 26.3269 63.3057 26.4453 63.3032 26.6988C63.3007 26.8714 63.3558 27.1241 63.4242 27.2617C63.4934 27.3994 63.6618 27.5687 63.7994 27.637C63.9371 27.7063 64.2473 27.763 64.4875 27.763C64.7669 27.763 65.0471 27.7004 65.2589 27.5912L65.5925 27.4194C65.841 27.7113 65.9845 27.7621 66.218 27.7621C66.4015 27.7621 66.5524 27.7346 66.5541 27.6996C66.5549 27.6654 66.4231 27.4777 66.2622 27.2826C65.9845 26.9482 65.9745 26.9156 66.0854 26.6988C66.1496 26.5729 66.2247 26.3294 66.2522 26.1567C66.3005 25.8498 66.2972 25.844 66.0303 25.8431C65.7801 25.8415 65.7551 25.8665 65.6968 26.1767C65.6626 26.361 65.6067 26.5128 65.5717 26.5153C65.5375 26.517 65.2564 26.2543 64.9462 25.9316C64.5325 25.4996 64.3832 25.2827 64.3824 25.1142C64.3816 24.9883 64.4266 24.8382 64.4825 24.7807C64.5384 24.7239 64.6701 24.6764 64.7752 24.6764C64.8878 24.6764 65.0279 24.7656 65.113 24.8907C65.2289 25.0609 65.3064 25.0951 65.4883 25.0575C65.6159 25.0309 65.7176 24.955 65.7176 24.8849C65.7176 24.8165 65.6801 24.6847 65.6342 24.593C65.5883 24.5013 65.4382 24.3703 65.3006 24.3011C65.163 24.2327 64.9103 24.1777 64.7377 24.1794C64.5659 24.1819 64.3224 24.2377 64.1956 24.3045ZM64.0872 26.3636C64.1631 26.261 64.2515 26.1776 64.2832 26.1767C64.3157 26.1759 64.5292 26.3636 64.7585 26.5937C65.0404 26.8748 65.1488 27.0391 65.0921 27.0966C65.0462 27.1442 64.8586 27.2059 64.6751 27.2351C64.4032 27.2776 64.3073 27.2542 64.1539 27.1075C64.0513 27.0091 63.9629 26.8431 63.9587 26.7388C63.9537 26.6338 64.0121 26.4653 64.0872 26.3636ZM68.8867 25.9691V27.7621C70.1477 27.7621 70.6539 27.7246 70.8257 27.6787C70.9984 27.6329 71.2561 27.4928 71.4003 27.366C71.5438 27.2401 71.7314 26.9965 71.8173 26.8239C71.9232 26.6112 71.9724 26.3327 71.9716 25.9482C71.9699 25.5221 71.9249 25.3061 71.784 25.0559C71.6814 24.8741 71.4662 24.638 71.3053 24.5313C71.1451 24.4237 70.8824 24.3003 70.7215 24.2569C70.5614 24.2127 70.0826 24.1769 69.6582 24.1769L68.8867 24.176V25.9691ZM69.5539 24.7598H69.9709C70.2002 24.7598 70.5197 24.8165 70.6798 24.8849C70.8407 24.9541 71.0275 25.0951 71.0943 25.1976C71.1618 25.3011 71.2419 25.5546 71.2719 25.7606C71.3028 25.9699 71.2869 26.2651 71.2352 26.4278C71.1852 26.5887 71.0459 26.8139 70.9258 26.9282C70.7423 27.1041 70.6164 27.14 69.5539 27.1783V25.9691V24.7598ZM72.4728 25.9691V27.7621H74.7246V27.1783H73.2234V26.261H74.391V25.6772H73.2234V24.7598H74.7246V24.176H72.4728V25.9691ZM75.6812 24.3361C75.5419 24.4237 75.3634 24.583 75.2842 24.6906C75.2008 24.8032 75.1407 25.0342 75.1416 25.2393C75.1416 25.5129 75.1941 25.648 75.3709 25.8306C75.4977 25.9607 75.8071 26.1342 76.0589 26.2168C76.3116 26.2993 76.5668 26.4086 76.6261 26.4603C76.6853 26.5112 76.7336 26.6471 76.7336 26.7614C76.7336 26.8764 76.6853 27.0182 76.6261 27.0774C76.5668 27.1358 76.3867 27.1884 76.2257 27.1934C76.0656 27.1984 75.8213 27.1358 75.6837 27.0541C75.5452 26.9715 75.3684 26.929 75.2875 26.9582C75.2075 26.9882 75.104 27.0866 75.0582 27.1783C74.989 27.3185 75.019 27.376 75.2458 27.5328C75.4551 27.6771 75.6553 27.7246 76.1215 27.7413C76.7178 27.7621 76.7311 27.758 77.0564 27.4494C77.3516 27.1692 77.3866 27.0933 77.3925 26.7197C77.3975 26.4361 77.3499 26.2368 77.244 26.0942C77.1548 25.9741 76.8446 25.7906 76.5118 25.6613C76.1941 25.5379 75.9063 25.3778 75.8713 25.3069C75.8371 25.2352 75.8088 25.1393 75.8088 25.0934C75.8088 25.0475 75.868 24.9541 75.9397 24.8849C76.0122 24.8165 76.1907 24.7615 76.3358 24.7631C76.4818 24.7648 76.6953 24.8199 76.8095 24.8849C76.9246 24.9508 77.0464 25.0058 77.0806 25.0075C77.1156 25.0092 77.1998 24.8974 77.2682 24.7598L77.3933 24.5096C76.8662 24.2461 76.5602 24.1769 76.33 24.1769C76.0848 24.1769 75.8379 24.2377 75.6812 24.3361ZM77.9771 25.9691V27.7621H78.6443V24.176H77.9771V25.9691ZM80.1871 24.3336C80.0037 24.4187 79.7718 24.5772 79.6709 24.6864C79.57 24.7957 79.4299 25.0258 79.3582 25.1976C79.2865 25.3703 79.2281 25.7172 79.2281 25.9691C79.2281 26.2218 79.2865 26.5687 79.3582 26.7405C79.4299 26.9131 79.57 27.1417 79.6709 27.2492C79.7718 27.3568 79.9945 27.5161 80.1663 27.6037C80.3898 27.7171 80.6517 27.7621 81.0837 27.7605C81.5082 27.7596 81.7942 27.7096 82.0428 27.5937L82.3972 27.4285L82.3555 25.9691L81.1462 25.9274C81.1863 26.4394 81.2179 26.472 81.459 26.4903C81.7092 26.5095 81.73 26.5337 81.73 26.8031C81.73 27.0741 81.7067 27.1016 81.3964 27.1783C81.1813 27.2326 80.9527 27.2342 80.7501 27.1825C80.5783 27.1392 80.3581 27.0166 80.2605 26.9115C80.163 26.8064 80.0362 26.5695 79.9803 26.3861C79.9203 26.1926 79.9019 25.9307 79.9353 25.7606C79.9678 25.6005 80.0562 25.3653 80.1329 25.2385C80.2088 25.1109 80.3931 24.9516 80.5416 24.8841C80.6909 24.8157 80.8977 24.759 81.0003 24.7581C81.1037 24.7573 81.3889 24.8232 81.6349 24.9041C82.0736 25.0492 82.0845 25.0484 82.1995 24.8849C82.2638 24.7932 82.3163 24.6714 82.3155 24.6139C82.3146 24.5572 82.1545 24.4354 81.9594 24.3445C81.7192 24.2319 81.4306 24.1785 81.0628 24.1794C80.7134 24.1802 80.4023 24.2344 80.1871 24.3336ZM82.9393 24.2319C82.9018 24.2628 82.8767 25.0692 82.8842 26.025L82.8976 27.7621H83.5648L83.6065 25.452C85.3019 27.6362 85.427 27.7621 85.6497 27.7621H85.8999V24.176H85.307L85.2744 26.5304C83.9242 24.8032 83.4922 24.2736 83.4438 24.2402C83.3963 24.2069 83.2787 24.1785 83.1828 24.1777C83.0869 24.1769 82.9776 24.201 82.9393 24.2319Z" fill="#5E5E5E"/>
<path d="M112.879 1.92622C112.558 2.11804 112.068 2.5025 111.789 2.78105C111.511 3.05877 111.126 3.54915 110.935 3.87023C110.744 4.19131 110.587 4.50072 110.586 4.55826C110.586 4.61581 110.745 4.74257 110.94 4.84098C111.135 4.93856 111.445 5.1212 111.628 5.24546C111.812 5.37056 112.145 5.65578 112.37 5.88095C112.595 6.10529 112.923 6.50477 113.1 6.76831C113.362 7.15945 113.464 7.24785 113.651 7.24618C113.837 7.24451 113.927 7.16529 114.13 6.82169C114.268 6.58817 114.662 6.12948 115.006 5.80173C115.35 5.47314 115.866 5.08284 116.152 4.93355C116.439 4.78427 116.674 4.61581 116.675 4.55826C116.675 4.50072 116.534 4.21049 116.362 3.9136C116.189 3.61587 115.785 3.10881 115.463 2.78772C115.142 2.46581 114.635 2.06133 114.337 1.88869C114.04 1.71689 113.721 1.57595 113.63 1.57679C113.538 1.57762 113.2 1.73441 112.879 1.92622ZM102.955 6.13365C102.863 6.152 102.549 6.23206 102.255 6.31129C101.851 6.42054 101.697 6.50644 101.617 6.66406C101.559 6.77832 101.445 7.19114 101.366 7.58144C101.262 8.09601 101.236 8.49632 101.27 9.0409C101.297 9.45372 101.38 9.99831 101.456 10.2502C101.532 10.502 101.619 10.7389 101.649 10.7764C101.679 10.8131 101.966 10.7656 102.288 10.6705C102.609 10.5754 103.153 10.4745 103.497 10.4462C103.93 10.4111 104.353 10.4403 104.873 10.5396C105.5 10.6588 105.641 10.6638 105.733 10.5704C105.822 10.4787 105.816 10.3044 105.7 9.58299C105.583 8.85493 105.575 8.59473 105.653 8.04013C105.704 7.67318 105.807 7.1853 105.881 6.95596C105.955 6.72661 105.983 6.51228 105.945 6.47892C105.905 6.44639 105.573 6.34298 105.206 6.24874C104.762 6.13532 104.303 6.08195 103.83 6.08862C103.441 6.09445 103.046 6.11447 102.955 6.13365ZM122.011 6.24874C121.667 6.34215 121.361 6.45056 121.332 6.48893C121.302 6.52729 121.357 6.83586 121.452 7.17446C121.571 7.59312 121.628 8.04263 121.631 8.58222C121.634 9.01839 121.58 9.60968 121.511 9.89657C121.4 10.3603 121.4 10.4328 121.511 10.5504C121.625 10.6705 121.703 10.6697 122.386 10.5387C122.9 10.4403 123.334 10.4111 123.763 10.4437C124.107 10.4703 124.651 10.5713 124.972 10.668C125.293 10.7647 125.581 10.8131 125.611 10.7764C125.641 10.7389 125.728 10.502 125.804 10.2502C125.881 9.99831 125.963 9.4162 125.987 8.95751C126.018 8.35704 125.993 7.94839 125.895 7.49804C125.82 7.15361 125.713 6.77999 125.657 6.6674C125.585 6.52062 125.413 6.4172 125.055 6.30462C124.732 6.20287 124.215 6.13532 123.596 6.1128C122.813 6.08528 122.522 6.1103 122.011 6.24874ZM99.0934 15.7336C98.8057 15.9054 98.3753 16.2173 98.136 16.4266C97.8966 16.6351 97.5247 17.0671 97.3095 17.3857C97.0944 17.7043 96.8759 18.0771 96.8241 18.2147C96.7424 18.4315 96.7599 18.5266 96.9567 18.9236C97.081 19.1754 97.337 19.5849 97.5255 19.8334C97.7132 20.0811 98.0734 20.4514 98.3261 20.6566C98.5788 20.8609 99.0008 21.1361 99.2644 21.2687C99.5279 21.4005 99.7623 21.5089 99.7856 21.5089C99.809 21.5089 99.9491 21.2746 100.098 20.9877C100.248 20.7008 100.638 20.1845 100.967 19.8409C101.294 19.4965 101.754 19.1029 101.986 18.9653C102.22 18.8277 102.431 18.6584 102.455 18.59C102.48 18.5216 102.479 18.4082 102.454 18.3398C102.429 18.2714 102.199 18.0837 101.943 17.9228C101.687 17.7618 101.246 17.3865 100.962 17.0888C100.679 16.7911 100.308 16.2932 100.138 15.9838C99.9666 15.6744 99.7798 15.4209 99.7214 15.4209C99.6638 15.4209 99.3811 15.5618 99.0934 15.7336ZM127.165 15.9362C127.013 16.2198 126.641 16.7169 126.337 17.0413C126.033 17.3657 125.575 17.7618 125.32 17.9228C125.064 18.0837 124.841 18.2714 124.823 18.3398C124.805 18.4082 124.803 18.5116 124.818 18.5691C124.834 18.6267 125.063 18.8177 125.326 18.9945C125.59 19.1713 125.989 19.4998 126.214 19.7242C126.439 19.9494 126.724 20.283 126.849 20.4664C126.973 20.6499 127.156 20.9593 127.254 21.1545C127.404 21.453 127.462 21.5006 127.62 21.4572C127.723 21.4288 128.033 21.2704 128.308 21.1053C128.583 20.9393 129.034 20.5782 129.31 20.3013C129.587 20.0253 129.951 19.5741 130.119 19.2989C130.288 19.0236 130.449 18.6859 130.476 18.5483C130.514 18.3531 130.456 18.1788 130.209 17.7577C130.035 17.4599 129.629 16.9529 129.307 16.6318C128.986 16.3099 128.479 15.9054 128.181 15.7328C127.884 15.561 127.596 15.42 127.54 15.42C127.485 15.4208 127.316 15.6527 127.165 15.9362ZM101.569 26.3251C101.52 26.4511 101.424 26.8172 101.354 27.1383C101.268 27.5386 101.243 27.9714 101.272 28.5143C101.296 28.9572 101.392 29.5551 101.489 29.8695L101.662 30.4325C102.757 30.7719 103.061 30.8069 103.872 30.8036C104.618 30.8003 105.009 30.7577 105.405 30.6368C105.697 30.5476 105.95 30.4458 105.968 30.4116C105.985 30.3774 105.917 30.058 105.818 29.7028C105.699 29.2749 105.635 28.8029 105.63 28.3058C105.627 27.893 105.679 27.3201 105.749 27.0332C105.859 26.5695 105.859 26.4969 105.749 26.3818C105.635 26.2643 105.543 26.2651 104.789 26.3902C104.222 26.4836 103.783 26.5086 103.413 26.4686C103.115 26.4361 102.618 26.3393 102.308 26.2526C101.999 26.1667 101.726 26.0958 101.702 26.0958C101.678 26.0958 101.619 26.1992 101.569 26.3251ZM124.888 26.2609C124.613 26.3418 124.144 26.4352 123.846 26.4677C123.476 26.5086 123.04 26.4844 122.47 26.3902C121.781 26.2759 121.617 26.2709 121.524 26.3618C121.431 26.4527 121.436 26.5945 121.555 27.2217C121.654 27.7412 121.683 28.1641 121.648 28.5977C121.62 28.9422 121.519 29.4859 121.424 29.807C121.329 30.1281 121.281 30.4166 121.318 30.4492C121.356 30.4809 121.611 30.5676 121.886 30.641C122.161 30.7135 122.706 30.7961 123.095 30.8228C123.606 30.8586 124.003 30.832 124.513 30.7285C124.903 30.6485 125.316 30.5359 125.43 30.4775C125.583 30.4 125.683 30.2273 125.804 29.8387C125.934 29.42 125.968 29.0756 125.966 28.2224C125.963 27.3718 125.927 27.0307 125.797 26.6379C125.702 26.3493 125.581 26.1325 125.511 26.125C125.444 26.1183 125.164 26.1792 124.888 26.2609ZM113.463 29.6627C113.417 29.6961 113.229 29.9446 113.046 30.2148C112.862 30.4859 112.487 30.9179 112.212 31.1764C111.937 31.4349 111.458 31.786 111.149 31.957C110.655 32.2289 110.592 32.2906 110.641 32.4549C110.671 32.5583 110.807 32.8302 110.943 33.0595C111.079 33.2889 111.327 33.6416 111.493 33.8426C111.659 34.0445 112.001 34.368 112.254 34.5624C112.506 34.7567 112.918 35.0194 113.171 35.1453L113.63 35.3755C114.64 34.8492 115.082 34.5232 115.424 34.1854C115.726 33.8868 116.131 33.3806 116.323 33.0595C116.514 32.7384 116.67 32.4199 116.668 32.3506C116.666 32.2814 116.436 32.113 116.156 31.9753C115.876 31.8377 115.399 31.4966 115.097 31.2181C114.795 30.9395 114.399 30.4892 114.219 30.2173C114.038 29.9454 113.851 29.6961 113.802 29.6627C113.753 29.6285 113.676 29.601 113.63 29.601C113.584 29.601 113.509 29.6285 113.463 29.6627Z" fill="#FF6C40"/>
<path d="M106.833 0.162402C106.488 0.256642 105.947 0.472643 105.629 0.641941C105.312 0.812073 104.791 1.1957 104.473 1.49343C104.145 1.80117 103.736 2.29656 103.528 2.64016C103.327 2.97291 103.182 3.3015 103.205 3.36989C103.241 3.47747 103.319 3.46997 103.768 3.31485C104.177 3.17307 104.495 3.13304 105.248 3.1272C106.025 3.12136 106.326 3.15639 106.833 3.31068C107.176 3.41576 107.462 3.49082 107.467 3.47747C107.472 3.46413 107.602 3.20893 107.758 2.9112C107.934 2.57677 108.281 2.12893 108.667 1.74196C109.011 1.39669 109.526 0.983873 109.812 0.824583C110.097 0.665292 110.331 0.487655 110.333 0.43011C110.335 0.372566 110.139 0.264983 109.898 0.190759C109.636 0.109863 109.057 0.0423104 108.459 0.0239628C107.639 -0.00272455 107.345 0.0222939 106.833 0.162402ZM117.966 0.0489812C117.875 0.0689967 117.603 0.141553 117.363 0.208272C117.122 0.275824 116.925 0.376736 116.926 0.432612C116.926 0.488489 117.16 0.661956 117.446 0.817911C117.749 0.982205 118.228 1.36667 118.592 1.73529C118.97 2.11892 119.329 2.58261 119.501 2.9112C119.657 3.20893 119.788 3.46413 119.793 3.47831C119.797 3.49165 120.064 3.4241 120.385 3.32736C120.706 3.23061 121.269 3.13054 121.636 3.10385C122.106 3.06966 122.512 3.09801 123.012 3.19892C123.401 3.27815 123.787 3.37739 123.867 3.41909C123.947 3.46079 124.05 3.4758 124.096 3.45329C124.144 3.4291 124.064 3.18892 123.908 2.89285C123.739 2.56927 123.371 2.10474 122.929 1.65773C122.433 1.15651 122.044 0.850437 121.636 0.637772C121.315 0.470142 120.752 0.256642 120.385 0.162402C119.915 0.0414754 119.483 -0.00606036 118.925 0.000611475C118.49 0.00644933 118.058 0.0281317 117.966 0.0489812ZM128.655 7.97512C128.63 8.01099 128.688 8.28453 128.785 8.58226C128.919 8.99675 128.962 9.35036 128.967 10.0834C128.973 10.8599 128.938 11.1618 128.784 11.668C128.679 12.0124 128.604 12.2976 128.617 12.3018C128.63 12.3068 128.885 12.4378 129.183 12.5937C129.512 12.7655 129.976 13.1241 130.359 13.5027C130.728 13.8664 131.112 14.3459 131.277 14.6486C131.433 14.9347 131.607 15.169 131.664 15.1699C131.722 15.1699 131.829 14.9739 131.903 14.7329C131.976 14.4918 132.056 13.9006 132.081 13.4193C132.115 12.753 132.09 12.3844 131.976 11.8765C131.894 11.5095 131.677 10.9091 131.493 10.5421C131.233 10.0217 131.001 9.71898 130.44 9.16605C130.016 8.74906 129.51 8.34458 129.21 8.18362C128.929 8.0335 128.679 7.9401 128.655 7.97512ZM97.9091 8.26535C97.6564 8.40963 97.1494 8.83079 96.7807 9.20108C96.257 9.72815 96.036 10.0292 95.7658 10.5838C95.5756 10.9741 95.3555 11.5929 95.2771 11.9599C95.1737 12.4403 95.1453 12.8489 95.1762 13.4193C95.1995 13.8555 95.2796 14.4276 95.3546 14.6912C95.4289 14.9547 95.5373 15.1699 95.5948 15.1682C95.6524 15.1665 95.8308 14.9322 95.991 14.647C96.1511 14.3617 96.5647 13.8455 96.9083 13.5002C97.322 13.0849 97.7256 12.7738 98.1001 12.5829C98.5705 12.3418 98.658 12.2651 98.6188 12.1267C98.593 12.0349 98.5079 11.7347 98.4304 11.4595C98.3378 11.1309 98.2902 10.658 98.2911 10.0834C98.2927 9.51715 98.3411 9.04595 98.4304 8.74906C98.5054 8.4972 98.588 8.22448 98.6138 8.14442C98.6455 8.04268 98.6155 7.99931 98.5138 8.00014C98.4337 8.00098 98.1618 8.12024 97.9091 8.26535ZM95.3471 22.2387C95.2379 22.5956 95.2012 22.9959 95.2029 23.8024C95.2062 24.7465 95.2345 24.9725 95.4272 25.5537C95.549 25.9207 95.8308 26.502 96.0543 26.8464C96.2779 27.19 96.6873 27.6787 96.9651 27.9306C97.2419 28.1825 97.699 28.511 97.9808 28.6603C98.2627 28.8096 98.5304 28.9122 98.5763 28.8897C98.6272 28.8638 98.5905 28.647 98.4804 28.3267C98.3411 27.9197 98.3003 27.5953 98.2944 26.8464C98.2886 26.0633 98.3228 25.7731 98.4812 25.2619C98.588 24.9174 98.6438 24.6272 98.6047 24.6164C98.5663 24.6047 98.2911 24.4546 97.9942 24.2828C97.6965 24.1101 97.1894 23.7057 96.8683 23.3837C96.5464 23.0618 96.1511 22.5648 95.991 22.2795C95.8308 21.9943 95.6532 21.7608 95.5965 21.76C95.5406 21.7591 95.428 21.9751 95.3471 22.2387ZM131.268 22.2812C131.108 22.5656 130.714 23.0652 130.393 23.3912C130.037 23.7532 129.581 24.1085 129.225 24.3036C128.904 24.4796 128.63 24.6264 128.617 24.6297C128.604 24.633 128.679 24.9174 128.784 25.2619C128.938 25.7681 128.973 26.07 128.967 26.8464C128.962 27.5995 128.921 27.9172 128.78 28.3267C128.67 28.647 128.632 28.8638 128.683 28.8897C128.729 28.9122 129.001 28.8113 129.288 28.6645C129.621 28.4927 130.05 28.1558 130.479 27.7263C130.997 27.2059 131.227 26.8956 131.499 26.346C131.693 25.9566 131.91 25.3553 131.984 25.0117C132.079 24.5672 132.106 24.1326 132.077 23.5105C132.055 23.0293 131.976 22.438 131.903 22.197C131.829 21.956 131.722 21.76 131.664 21.7616C131.607 21.7633 131.428 21.9968 131.268 22.2812ZM103.203 33.5224C103.181 33.5658 103.285 33.8318 103.434 34.1137C103.584 34.3956 103.911 34.8526 104.164 35.1295C104.417 35.4072 104.904 35.8167 105.248 36.0402C105.592 36.2637 106.174 36.5464 106.541 36.6682C107.135 36.8659 107.331 36.8892 108.334 36.885C109.22 36.8817 109.556 36.8467 109.913 36.7216C110.161 36.634 110.377 36.5156 110.392 36.458C110.406 36.4005 110.372 36.3546 110.315 36.3546C110.257 36.3555 109.928 36.1736 109.585 35.9501C109.24 35.7266 108.772 35.3338 108.542 35.0761C108.313 34.8184 107.984 34.3723 107.811 34.0837C107.638 33.796 107.487 33.5258 107.475 33.4841C107.463 33.4424 107.267 33.4707 107.039 33.5466C106.811 33.6233 106.324 33.7301 105.957 33.7843C105.447 33.8602 105.132 33.8602 104.623 33.786C104.256 33.7326 103.795 33.6342 103.599 33.5666C103.388 33.4941 103.227 33.4757 103.203 33.5224ZM119.508 33.9978C119.318 34.3731 119.013 34.7692 118.593 35.1862C118.247 35.5306 117.73 35.9435 117.445 36.1036C117.159 36.2637 116.926 36.4422 116.925 36.4997C116.924 36.5573 117.065 36.6398 117.237 36.6832C117.408 36.7274 117.719 36.8016 117.925 36.8483C118.131 36.895 118.6 36.9351 118.967 36.9367C119.367 36.9384 119.902 36.8725 120.301 36.7724C120.668 36.6807 121.25 36.4647 121.594 36.2929C122.05 36.0644 122.401 35.7992 122.887 35.3121C123.254 34.9444 123.676 34.4281 123.825 34.1646C123.974 33.9011 124.078 33.6292 124.054 33.56C124.019 33.4524 123.941 33.459 123.491 33.6125C123.093 33.7493 122.755 33.7926 122.053 33.7993C121.335 33.8051 120.995 33.7668 120.489 33.6208C120.134 33.5183 119.832 33.4349 119.819 33.4349C119.805 33.4349 119.666 33.6884 119.508 33.9978Z" fill="#4CB2AB"/>
<path d="M108.863 8.06111C108.748 8.48393 108.71 8.90509 108.713 9.74991C108.718 10.6448 108.752 10.97 108.88 11.3336C109.031 11.7581 109.082 11.8123 109.582 12.0842C109.878 12.2452 110.375 12.6113 110.687 12.8982C111.131 13.3068 111.302 13.4153 111.482 13.3986L111.712 13.3777C111.797 11.995 111.893 11.3895 111.995 11.0634L112.17 10.5005C111.862 9.88669 111.603 9.48304 111.396 9.20783C111.19 8.93261 110.802 8.53397 110.532 8.32298C110.264 8.11115 109.847 7.83927 109.606 7.71834C109.365 7.59741 109.134 7.49817 109.092 7.49817C109.05 7.49817 108.947 7.7517 108.863 8.06111ZM117.591 7.75086C117.338 7.88764 116.939 8.15868 116.702 8.353C116.466 8.54815 116.119 8.89508 115.931 9.12443C115.743 9.35377 115.477 9.75742 115.339 10.021L115.089 10.5005C115.364 11.3336 115.453 11.8782 115.481 12.377C115.507 12.8356 115.57 13.2593 115.621 13.3185C115.673 13.3786 115.781 13.4253 115.861 13.4228C115.941 13.4211 116.263 13.1851 116.574 12.8982C116.887 12.6113 117.393 12.246 117.697 12.0851L118.252 11.7932C118.579 10.5706 118.604 10.292 118.576 9.45802C118.552 8.76081 118.493 8.3113 118.379 7.97604C118.29 7.71167 118.179 7.4965 118.133 7.499C118.087 7.50067 117.844 7.61409 117.591 7.75086ZM103.789 13.537C103.743 13.5537 103.469 13.6329 103.182 13.7147C102.893 13.7964 102.66 13.904 102.663 13.954C102.666 14.004 102.788 14.2701 102.934 14.5453C103.088 14.8372 103.478 15.3267 103.869 15.7204C104.292 16.1457 104.748 16.5077 105.102 16.7003L105.665 17.0055C106.476 16.7395 107.041 16.6444 107.458 16.6211C107.871 16.5977 108.293 16.5619 108.396 16.5418C108.537 16.5143 108.584 16.4468 108.586 16.2758C108.587 16.1157 108.483 15.9455 108.244 15.7129C108.055 15.5294 107.748 15.1541 107.56 14.8789C107.373 14.6037 107.174 14.2659 107.118 14.1283C107.036 13.9273 106.921 13.8464 106.528 13.7147C106.165 13.5929 105.765 13.5462 104.956 13.5295C104.36 13.5178 103.835 13.5212 103.789 13.537ZM121.386 13.537C121.34 13.5537 121.077 13.6304 120.802 13.708C120.312 13.8464 120.296 13.8606 120.01 14.396C119.85 14.6962 119.483 15.2 119.197 15.5152C118.849 15.8972 118.675 16.1577 118.675 16.2967C118.675 16.4459 118.728 16.516 118.863 16.5418C118.966 16.5627 119.388 16.5969 119.801 16.6186C120.237 16.6419 120.77 16.7312 121.073 16.8321L121.594 17.0055C122.455 16.5635 122.885 16.2216 123.349 15.7579C123.781 15.3259 124.165 14.8489 124.326 14.5453C124.471 14.2701 124.593 14.0074 124.596 13.9615C124.597 13.9156 124.383 13.8047 124.119 13.7147C123.758 13.5929 123.366 13.5462 122.553 13.5295C121.957 13.5178 121.432 13.5212 121.386 13.537ZM105.165 20.1772C104.912 20.3139 104.513 20.585 104.276 20.7793C104.04 20.9744 103.693 21.3214 103.504 21.5507C103.317 21.7801 103.045 22.1929 102.901 22.4681C102.65 22.9493 102.645 22.9727 102.797 23.0736C102.884 23.1311 103.237 23.2395 103.58 23.3146C104.036 23.413 104.455 23.4389 105.123 23.408C105.707 23.3821 106.206 23.3096 106.497 23.2095C106.923 23.0619 106.975 23.0135 107.288 22.4681C107.473 22.147 107.84 21.65 108.104 21.3631C108.477 20.9578 108.579 20.791 108.563 20.6125L108.542 20.3832C107.166 20.2948 106.558 20.1972 106.249 20.0988C105.951 20.0037 105.689 19.927 105.665 19.9278C105.642 19.9286 105.417 20.0404 105.165 20.1772ZM120.969 20.1054C120.687 20.198 120.086 20.2939 119.593 20.3264L118.717 20.3832C118.679 20.7926 118.788 20.9636 119.197 21.4081C119.483 21.72 119.85 22.2171 120.01 22.5131C120.283 23.0152 120.334 23.0627 120.761 23.2095C121.052 23.3096 121.553 23.3821 122.136 23.408C122.804 23.4389 123.224 23.413 123.679 23.3146C124.024 23.2395 124.374 23.1311 124.46 23.0736C124.608 22.9727 124.605 22.9501 124.386 22.5098C124.26 22.2579 123.984 21.8309 123.772 21.5624C123.561 21.293 123.162 20.9044 122.887 20.6984C122.612 20.4916 122.208 20.233 121.99 20.1238C121.773 20.0137 121.566 19.9278 121.532 19.9328C121.497 19.937 121.244 20.0154 120.969 20.1054ZM110.662 24.0327C110.36 24.3187 109.873 24.6748 109.578 24.8233C109.063 25.0826 109.037 25.111 108.889 25.5738C108.797 25.8591 108.716 26.427 108.689 26.9716C108.657 27.648 108.681 28.0533 108.78 28.5145C108.855 28.8581 108.964 29.2108 109.021 29.2976C109.122 29.4485 109.148 29.4435 109.668 29.1758C110.03 28.9895 110.448 28.659 110.923 28.1842C111.386 27.7205 111.728 27.2902 111.903 26.9507L112.17 26.4295C111.889 25.4854 111.789 24.8541 111.761 24.3863L111.712 23.5523C111.256 23.5164 111.113 23.6065 110.662 24.0327ZM115.552 23.6148C115.534 23.6724 115.501 24.0752 115.479 24.5114C115.456 24.9742 115.367 25.5371 115.264 25.8666L115.089 26.4295C115.587 27.3469 115.949 27.8031 116.374 28.2259C116.768 28.6162 117.258 29.0065 117.549 29.1608C117.825 29.3067 118.096 29.4277 118.154 29.4293C118.216 29.431 118.33 29.1499 118.434 28.7438C118.579 28.1784 118.604 27.8773 118.576 27.055C118.553 26.3611 118.492 25.9041 118.379 25.5663C118.248 25.1727 118.168 25.0584 117.966 24.9767C117.829 24.9208 117.491 24.7215 117.216 24.5347C116.941 24.3471 116.565 24.0393 116.382 23.8508C116.147 23.6098 115.979 23.5081 115.817 23.5089C115.69 23.5097 115.57 23.5573 115.552 23.6148Z" fill="#926ECC"/>
</svg>
