<svg width="56" height="45" viewBox="0 0 56 45" fill="none" xmlns="http://www.w3.org/2000/svg">
<path d="M32.1113 39.0937C32.1392 40.5317 32.1496 40.6127 32.3682 40.9881C32.4945 41.2041 32.7489 41.495 32.9344 41.6361C33.1208 41.7773 33.3995 41.9436 33.5554 42.0063C33.7113 42.069 34.0441 42.1204 34.2958 42.1204C34.5475 42.1204 34.8802 42.0812 35.0361 42.0333C35.2643 41.9628 35.3279 41.9715 35.3628 42.0769C35.3863 42.1483 35.3183 42.3225 35.2103 42.4627C35.1023 42.6038 34.8968 42.7606 34.753 42.8129C34.6093 42.8651 34.0859 42.9069 33.5903 42.9061L32.6888 42.9043C32.1897 43.4182 32.0965 43.5959 32.0965 43.7753V44.0366C34.6642 44.0392 34.8881 44.0166 35.2103 43.8633C35.4141 43.7675 35.7399 43.541 35.9341 43.3616C36.1554 43.1578 36.3522 42.8625 36.4567 42.5777C36.6074 42.1692 36.6257 41.88 36.6257 39.8558V37.5912C36.1615 37.5912 36.0021 37.6766 35.7895 37.8961L35.4934 38.2009C35.4978 40.0579 35.4777 40.1929 35.2983 40.4655C35.1886 40.6336 34.9525 40.8392 34.774 40.9228C34.5945 41.0064 34.3402 41.0561 34.2087 41.0334C34.0771 41.0108 33.8542 40.9028 33.7139 40.7939C33.5737 40.685 33.4073 40.469 33.3438 40.3131C33.2741 40.1406 33.2288 39.6729 33.2288 39.1155C33.2288 38.2035 33.2279 38.2 32.9457 37.8995C32.7349 37.6757 32.5886 37.5973 32.3726 37.5947L32.0817 37.5912L32.1113 39.0937Z" fill="#2F2F2F"/>
<path d="M26.7834 0.0222317C26.6153 0.0440068 25.8514 0.176399 25.0849 0.316631C24.3184 0.456862 23.3385 0.665903 22.9074 0.781747C22.4762 0.89759 21.8491 1.09095 21.5138 1.21115C21.1785 1.33135 20.6881 1.50816 20.425 1.6031C20.162 1.69804 19.75 1.86092 19.5105 1.96457C19.271 2.06735 18.7031 2.333 18.2475 2.55424C17.792 2.77634 17.0081 3.18659 16.5055 3.46705C16.003 3.74664 15.5126 4.02449 15.4176 4.08198C15.3218 4.14034 14.7539 4.51051 14.1547 4.90333C13.5554 5.29703 12.8891 5.74385 12.6731 5.89628C12.4571 6.04783 11.7716 6.57479 11.1488 7.06691C10.5261 7.55902 9.91986 8.05288 9.80141 8.16524C9.68382 8.2776 9.42862 8.50058 9.23525 8.66171C9.04276 8.82285 8.60987 9.21045 8.27454 9.52401C7.9392 9.83757 7.25372 10.4899 6.75028 10.9742C6.24684 11.4585 5.53872 12.1283 5.17638 12.4636C4.81317 12.7981 4.18866 13.3669 3.78713 13.7257C3.3856 14.0855 2.86212 14.5558 2.62347 14.7709C2.38481 14.9861 1.93189 15.3972 1.61746 15.6837C1.30303 15.9703 0.827459 16.4215 0.560061 16.6854C0.293534 16.9502 0.0487821 17.2742 0.0156839 17.4057C-0.0226402 17.5616 0.00958756 17.7559 0.108882 17.9632C0.192498 18.1374 0.378893 18.3603 0.522608 18.4579C0.666324 18.5563 0.920657 18.7514 1.08876 18.8934C1.25686 19.0345 1.66711 19.3899 2.00244 19.6825C2.33691 19.9752 2.94226 20.5283 3.34814 20.9115C3.75316 21.2947 4.42035 21.9384 4.82972 22.3417C5.23909 22.7441 5.86883 23.3521 6.22855 23.6917C6.58827 24.0306 7.25459 24.6054 7.70926 24.9678C8.16392 25.3301 8.7832 25.8004 9.08631 26.013C9.38942 26.2255 9.80054 26.5042 10.0009 26.6331C10.2012 26.7629 10.6593 27.0329 11.0182 27.2341C11.3779 27.4362 11.7307 27.6496 11.8021 27.7088C11.8735 27.7689 12.3839 28.0424 12.9344 28.3168C13.4849 28.592 14.0928 28.8881 14.2845 28.9761C14.4761 29.0641 14.868 29.2357 15.1555 29.3594C15.4429 29.4822 15.7173 29.5823 15.7652 29.5815C15.8131 29.5806 16.009 29.6538 16.2007 29.7435C16.3923 29.8332 16.941 30.0283 17.4201 30.1764C17.8991 30.3236 18.5654 30.523 18.9008 30.6197C19.2361 30.7155 19.8632 30.8531 20.2944 30.9263C20.7255 30.9995 21.2542 31.0996 21.4702 31.1501C21.6862 31.2007 22.822 31.2625 23.9961 31.2878C25.6537 31.3226 26.3348 31.3034 27.0447 31.1989C27.5472 31.1258 28.2919 30.9916 28.6996 30.901C29.1072 30.8113 29.7726 30.6319 30.1803 30.5047C30.5879 30.3767 30.999 30.2373 31.0948 30.1955C31.1906 30.1528 31.5042 30.0117 31.7916 29.8802C32.0791 29.7496 32.5494 29.5257 32.8368 29.3838C33.1243 29.2418 33.5293 29.0214 33.7366 28.8942C33.9439 28.7671 34.3358 28.484 34.6076 28.2654C34.8793 28.0459 35.2608 27.674 35.4551 27.4379C35.6493 27.2019 35.935 26.8125 36.09 26.573C36.2451 26.3335 36.4445 25.9807 36.5334 25.7891C36.6231 25.5975 36.759 25.304 36.8365 25.1359C36.914 24.9678 37.0577 24.5366 37.157 24.1778C37.2563 23.818 37.3913 23.2693 37.4566 22.9584C37.5228 22.6474 37.6221 21.8043 37.6787 21.0857C37.7545 20.1259 37.7571 19.3045 37.6909 17.9936C37.6117 16.4215 37.5733 16.1253 37.3643 15.5113C37.2337 15.128 36.988 14.5593 36.8182 14.2483C36.6483 13.9374 36.3296 13.467 36.1101 13.204C35.8906 12.9401 35.6118 12.6265 35.4908 12.5072C35.3697 12.387 35.0953 12.1457 34.8811 11.9707C34.6668 11.7965 34.2958 11.5378 34.0562 11.3967C33.8167 11.2547 33.3167 11.016 32.9457 10.8645C32.4876 10.6781 31.9562 10.5492 31.2908 10.4621C30.5269 10.3628 30.128 10.3541 29.4835 10.4238C29.0279 10.4725 28.4992 10.5527 28.3076 10.6014C28.116 10.6493 27.704 10.7887 27.3931 10.9106C27.0821 11.0317 26.7677 11.185 26.6963 11.2503C26.6248 11.3157 26.5264 11.3697 26.4785 11.3697C26.4306 11.3688 26.1362 11.5595 25.8253 11.7938C25.5143 12.0273 25.0431 12.4497 24.78 12.7337C24.517 13.0176 24.1686 13.4444 24.0075 13.6839C23.8463 13.9226 23.6347 14.2745 23.538 14.4661C23.4404 14.6577 23.2436 15.1472 23.0999 15.5548C22.8743 16.195 22.8334 16.4537 22.7968 17.471C22.7698 18.1983 22.7942 18.8795 22.8586 19.2566C22.917 19.5919 22.9936 19.9055 23.0293 19.9534C23.065 20.0013 23.146 20.2173 23.2079 20.4325C23.2706 20.6476 23.4396 21.0395 23.5833 21.3035C23.7279 21.5665 23.9439 21.9393 24.065 22.1309C24.1852 22.3225 24.5823 22.7763 24.9455 23.1395C25.3096 23.5036 25.8235 23.9374 26.0866 24.1037C26.3496 24.2701 26.7024 24.4765 26.8705 24.5619C27.0386 24.6481 27.508 24.8328 27.9157 24.9739C28.3668 25.1289 28.9879 25.2622 29.5052 25.3127C29.9721 25.3597 30.3937 25.3771 30.4416 25.3536C30.4895 25.3301 30.5287 25.3301 30.5287 25.3536C30.5287 25.3771 30.3623 25.4878 30.1585 25.5975C29.9547 25.7081 29.4748 25.9032 29.0915 26.0321C28.7083 26.1602 27.846 26.3474 27.1753 26.4476C26.2712 26.5826 25.7085 26.6183 24.9978 26.5861C24.4708 26.5617 23.9221 26.5225 23.7784 26.4972C23.6347 26.472 23.1643 26.4075 22.7332 26.3535C22.302 26.2995 21.5573 26.1593 21.0783 26.0408C20.5992 25.9233 19.8746 25.7247 19.4669 25.6001C19.0593 25.4764 18.4714 25.2787 18.1604 25.1629C17.8495 25.0462 17.3983 24.8711 17.1588 24.7727C16.9192 24.6742 16.5473 24.5157 16.3313 24.4216C16.1153 24.3267 15.4298 23.9957 14.8071 23.6865C14.1843 23.3764 13.491 23.0176 13.2654 22.8887C13.0407 22.7589 12.5904 22.5002 12.2637 22.3121C11.938 22.1248 11.5539 21.8896 11.4101 21.7895C11.2664 21.6893 11.0835 21.5691 11.0043 21.5212C10.925 21.4733 10.6114 21.2608 10.3075 21.0491C10.0035 20.8375 9.63853 20.5831 9.49481 20.483C9.35197 20.3837 8.76404 19.9264 8.18831 19.4683C7.61345 19.0101 7.02378 18.5206 6.87919 18.3795C6.73373 18.2393 6.58653 18.0163 6.55256 17.8848C6.50959 17.7251 6.53921 17.539 6.64141 17.3265C6.72502 17.1505 6.89226 16.9319 7.01158 16.8387C7.13178 16.7455 7.51938 16.4093 7.87388 16.0905C8.22837 15.7717 8.57852 15.4521 8.65255 15.3806C8.72659 15.3092 9.04625 15.0348 9.36329 14.7709C9.68034 14.507 10.0897 14.1743 10.2744 14.0306C10.4581 13.8869 10.6715 13.7083 10.7482 13.6343C10.8248 13.5602 10.986 13.4339 11.1053 13.3547C11.2255 13.2754 11.6558 12.9558 12.0634 12.6457C12.471 12.3347 12.8821 12.0212 12.978 11.9489C13.0738 11.8766 13.2697 11.725 13.4135 11.6135C13.5572 11.5021 13.7923 11.3357 13.9361 11.2451C14.0798 11.1537 14.2366 11.0456 14.2845 11.0038C14.3324 10.9612 14.8445 10.6258 15.422 10.2583C16.0003 9.88983 16.5491 9.53968 16.6414 9.48046C16.7346 9.42123 16.9671 9.28709 17.1588 9.18257C17.3504 9.07892 17.5464 8.95872 17.5943 8.91692C17.6422 8.87424 17.8573 8.74359 18.0733 8.626C18.2893 8.50842 19.0532 8.12169 19.7718 7.76632C20.4904 7.41095 21.4502 6.97806 21.9057 6.80561C22.3613 6.63228 22.8316 6.44762 22.9509 6.39536C23.0711 6.3431 23.4431 6.22378 23.7784 6.13058C24.1137 6.03738 24.76 5.88583 25.2155 5.79263C25.6711 5.7003 26.239 5.58185 26.4785 5.53046C26.7398 5.47471 27.576 5.45119 28.5689 5.4721C29.73 5.49736 30.5557 5.56443 31.3343 5.69682C31.9449 5.80134 32.6504 5.94854 32.9022 6.02344C33.1539 6.09835 33.6138 6.23858 33.9256 6.33526C34.2374 6.43194 34.8445 6.64882 35.2756 6.8178C35.7068 6.9859 36.4515 7.3195 36.9305 7.55815C37.4096 7.79681 38.1351 8.19486 38.5419 8.44135C38.9487 8.68871 39.3406 8.94479 39.4129 9.01099C39.4852 9.07805 39.6219 9.17212 39.7178 9.22177C39.8136 9.27142 40.2839 9.62678 40.763 10.0109C41.242 10.3959 42.0259 11.1057 42.505 11.5892C42.984 12.0717 43.6111 12.7798 43.8986 13.1613C44.186 13.5428 44.5161 13.9931 44.6311 14.1604C44.7469 14.3285 45.0762 14.9364 45.3627 15.5113C45.6493 16.0861 45.9846 16.6932 46.1083 16.8613C46.232 17.0294 46.4123 17.2454 46.509 17.343C46.6065 17.4397 46.8234 17.6182 46.9906 17.7393C47.1579 17.8604 47.4331 18.0381 47.6003 18.1347C47.7676 18.2314 48.0428 18.3577 48.21 18.4161C48.3773 18.4744 49.0445 18.5964 49.6907 18.687C50.337 18.7775 51.3962 18.8951 52.0424 18.9483C52.6887 19.0014 53.4439 19.0824 53.7191 19.1286C54.1808 19.2061 54.2478 19.1956 54.5684 18.9953C54.76 18.8751 54.942 18.6896 54.9734 18.5816C55.0047 18.4736 55.0248 18.2488 55.0178 18.0807C55.0117 17.9126 54.9507 17.5799 54.8837 17.3404C54.8166 17.1009 54.6755 16.6105 54.571 16.2516C54.4665 15.8919 54.3497 15.5592 54.3114 15.5113C54.274 15.4634 54.193 15.2674 54.1329 15.0758C54.0728 14.8842 53.9717 14.629 53.9099 14.5096C53.8472 14.3894 53.6268 13.9435 53.4204 13.5176C53.2131 13.0916 52.9884 12.6413 52.9204 12.5159C52.8525 12.3905 52.5929 11.975 52.3429 11.5918C52.093 11.2085 51.7097 10.6598 51.4902 10.3724C51.2716 10.0849 50.9833 9.71389 50.8492 9.54839C50.715 9.3829 50.1114 8.75578 49.5078 8.15479C48.9042 7.5538 48.2188 6.88312 47.9836 6.66363C47.7493 6.44501 47.3025 6.05654 46.9906 5.80221C46.6788 5.54788 46.4044 5.31532 46.3809 5.2857C46.3574 5.25696 46.1022 5.05663 45.8148 4.84149C45.5273 4.62636 45.2721 4.42864 45.2486 4.40338C45.2251 4.37725 44.8715 4.13772 44.4647 3.8712C44.058 3.6038 43.4108 3.21097 43.0276 2.99758C42.6443 2.78331 42.1148 2.5072 41.8517 2.38265C41.5887 2.2581 41.1967 2.07693 40.9807 1.97938C40.7647 1.88182 40.3144 1.69978 39.9791 1.57436C39.6437 1.44806 39.2222 1.3087 39.0427 1.26428C38.8633 1.21986 38.5689 1.12666 38.3895 1.05611C38.21 0.986432 37.7493 0.866234 37.366 0.788715C36.9828 0.711195 36.63 0.624966 36.5821 0.597965C36.5342 0.570093 35.7111 0.431603 34.753 0.290501C33.1304 0.0501038 32.8072 0.0300708 30.0496 0.00742468C28.4208 -0.00651137 26.9515 -0.000414346 26.7834 0.0222317Z" fill="#67509B"/>
<path fill-rule="evenodd" clip-rule="evenodd" d="M30.4416 35.0653H30.7029C30.8858 35.0653 31.0565 35.1576 31.5739 35.675L31.5774 42.164L31.249 42.1013C31.0487 42.0638 30.8274 41.9367 30.4416 41.5107V35.0653ZM20.5121 35.5879H20.7299C20.8492 35.5879 21.0844 35.7055 21.2525 35.8492C21.5556 36.1096 21.5573 36.114 21.5539 36.8291C21.551 37.3081 21.5872 37.5837 21.6627 37.6557C21.749 37.7384 21.8448 37.7402 22.0799 37.6644C22.2489 37.6095 22.6365 37.5843 22.951 37.6086C23.2619 37.6322 23.6347 37.7114 23.7784 37.7846C23.9221 37.8569 24.1721 38.0494 24.3341 38.2114C24.4961 38.3734 24.6921 38.6234 24.7696 38.7671C24.8715 38.9552 24.9107 39.2592 24.9107 39.8558C24.9107 40.4525 24.8715 40.7565 24.7696 40.9446C24.6921 41.0883 24.4961 41.3383 24.3341 41.5003C24.1721 41.6623 23.9221 41.8565 23.7784 41.9323C23.5938 42.0299 23.2114 42.0786 22.4719 42.0987C21.7037 42.1196 21.3971 42.0978 21.3143 42.0151C21.2246 41.9253 21.1811 41.9245 21.1009 42.0116C21.0452 42.0717 20.8902 42.1204 20.5121 42.1204V35.5879ZM21.7289 39.3768C21.6096 39.6224 21.5582 39.9185 21.5547 40.3784C21.5512 40.807 21.5887 41.0674 21.6627 41.1353C21.7359 41.2033 21.8204 41.2111 21.9057 41.1589C21.9772 41.1144 22.2228 41.077 22.4501 41.077C22.6775 41.0761 23.0067 41.0064 23.1818 40.9228C23.356 40.8392 23.5789 40.6528 23.6756 40.5091C23.7732 40.3654 23.8672 40.111 23.8855 39.9429C23.9064 39.7522 23.8568 39.524 23.7523 39.3332C23.6608 39.1651 23.4335 38.9404 23.2471 38.8341C23.0598 38.727 22.829 38.6399 22.7332 38.6399C22.6374 38.6399 22.4101 38.7279 22.228 38.8341C22.0303 38.9509 21.83 39.1677 21.7289 39.3768ZM28.3729 35.8544C28.4949 35.8501 28.5254 35.9233 28.5262 36.2194C28.5262 36.4267 28.4609 36.6854 28.3773 36.8073C28.2954 36.9266 28.1683 37.073 28.0942 37.1313C28.0202 37.1897 27.8225 37.2393 27.3495 37.2454L27.4114 36.83C27.4453 36.6018 27.5568 36.3213 27.6596 36.2063C27.7624 36.0914 27.9305 35.9668 28.0333 35.9294C28.136 35.891 28.2893 35.8579 28.3729 35.8544ZM11.4319 35.9415C11.6053 35.9372 11.6279 35.9799 11.6305 36.3065C11.6323 36.5678 11.5748 36.7455 11.4345 36.911C11.3257 37.0399 11.1184 37.1888 10.9747 37.2411C10.8309 37.2942 10.6646 37.316 10.6045 37.2899C10.5444 37.2637 10.4956 37.1061 10.4956 36.938C10.4956 36.7699 10.5783 36.5121 10.6794 36.3649C10.7804 36.2177 10.9468 36.0635 11.0496 36.0225C11.1523 35.9807 11.3239 35.945 11.4319 35.9415ZM9.16732 37.5947C10.0035 37.5912 10.0601 37.6025 10.0601 37.7654C10.0601 37.8612 10.0166 38.0276 9.96255 38.1356C9.90942 38.2436 9.78225 38.3995 9.67947 38.4823C9.5584 38.5798 9.3424 38.6321 9.05845 38.6321C8.73531 38.6312 8.57853 38.6765 8.44875 38.808C8.28674 38.9726 8.28413 38.9953 8.41826 39.1373C8.49752 39.2209 8.73269 39.3176 8.94086 39.3515C9.14903 39.3855 9.4173 39.4865 9.5375 39.5754C9.65683 39.6642 9.8258 39.8724 9.91203 40.0361C10.0235 40.2469 10.0618 40.4795 10.0427 40.8287C10.0253 41.1574 9.95645 41.4042 9.83625 41.5691C9.73696 41.7041 9.52095 41.8844 9.3572 41.968C9.12726 42.0847 8.84157 42.1204 8.12212 42.1204C7.55597 42.1204 7.18579 42.0856 7.18579 42.0333C7.18579 41.9854 7.2546 41.8034 7.33822 41.6283C7.42183 41.4533 7.56903 41.2564 7.66484 41.192C7.76065 41.1266 8.03502 41.0761 8.27455 41.0787C8.56633 41.0813 8.74576 41.0387 8.81892 40.9481C8.87902 40.8749 8.91822 40.7495 8.90602 40.6711C8.89383 40.5918 8.82502 40.496 8.7536 40.4577C8.68217 40.4194 8.46617 40.3619 8.27455 40.3297C8.05244 40.2931 7.82685 40.1729 7.65352 39.9987C7.50196 39.8471 7.33386 39.551 7.2755 39.3332C7.19886 39.0502 7.1945 38.8568 7.25983 38.6364C7.30947 38.4683 7.4288 38.2192 7.52461 38.0816C7.62042 37.9449 7.82859 37.7794 7.98711 37.7149C8.16044 37.6444 8.62904 37.5965 9.16732 37.5947ZM11.6279 37.5912V41.5107L11.3318 41.8156C11.1192 42.0351 10.9598 42.1204 10.4956 42.1204V40.226C10.4965 38.4535 10.5078 38.3133 10.6785 38.0459C10.7787 37.8882 10.945 37.7236 11.0487 37.6809C11.1515 37.6374 11.3239 37.5999 11.6279 37.5912ZM12.0634 37.5912L12.3029 37.5886C12.4345 37.5869 12.6505 37.6653 12.782 37.7628C13.0119 37.9327 13.032 37.9335 13.3046 37.7898C13.4605 37.7079 13.8429 37.6243 14.1538 37.6052C14.4778 37.5843 14.8689 37.6165 15.0684 37.6801C15.26 37.741 15.5535 37.9013 16.0265 38.2793L16.3313 38.0363C16.4994 37.9022 16.7729 37.7463 16.941 37.6905C17.1091 37.6339 17.4619 37.5895 17.7249 37.5904C17.988 37.5912 18.3608 37.6365 18.5524 37.6914C18.7562 37.7497 19.075 37.957 19.3197 38.1913C19.5932 38.4535 19.797 38.7514 19.9077 39.0502C20.047 39.4282 20.0766 39.7348 20.0766 42.1204H19.8153C19.6498 42.1204 19.4504 42.0272 18.9879 41.6126L18.9443 40.5387C18.9069 39.6085 18.8747 39.4256 18.7048 39.1808C18.5776 38.997 18.3642 38.8463 18.0951 38.7514C17.6875 38.6068 17.6753 38.6077 17.2894 38.8167C17.0438 38.9491 16.8409 39.1425 16.7451 39.3332C16.6214 39.5806 16.5926 39.8724 16.5926 42.1204H16.3313C16.1484 42.1204 15.9777 42.0281 15.4603 41.5107L15.4577 40.5309C15.4551 39.713 15.4264 39.5039 15.2835 39.2679C15.1894 39.112 14.9456 38.903 14.7417 38.8028C14.495 38.6814 14.299 38.6405 14.1538 38.68C14.0336 38.7131 13.8211 38.8246 13.6809 38.9273C13.5398 39.031 13.3734 39.2426 13.3107 39.3986C13.2436 39.564 13.1957 40.0265 13.1957 40.5091C13.1957 41.0343 13.1522 41.4236 13.0764 41.5761C13.0111 41.7076 12.8543 41.8844 12.728 41.968C12.6017 42.0516 12.4005 42.1204 12.0634 42.1204V37.5912ZM27.785 37.5991C28.0725 37.5991 28.4444 37.647 28.6125 37.7053C28.7806 37.7637 29.0375 37.9091 29.1839 38.0276C29.3302 38.1469 29.5654 38.4204 29.7065 38.6364C29.9442 39.0005 29.9625 39.0867 29.9625 39.8558C29.9625 40.6249 29.9442 40.7112 29.7065 41.0752C29.5654 41.2912 29.3302 41.5647 29.1839 41.6841C29.0375 41.8025 28.7806 41.948 28.6125 42.0063C28.4444 42.0647 28.0916 42.1152 27.8286 42.1187C27.5655 42.1213 27.1736 42.063 26.9576 41.988C26.7416 41.9131 26.3984 41.6867 26.1946 41.4855C25.9786 41.2721 25.7686 40.955 25.6929 40.7268C25.6206 40.5108 25.5622 40.1189 25.5622 39.8558C25.5622 39.5928 25.6206 39.2008 25.6929 38.9848C25.7678 38.7592 25.9812 38.4352 26.1946 38.2218C26.3984 38.018 26.7224 37.7942 26.914 37.7254C27.1056 37.6557 27.4976 37.5991 27.785 37.5991ZM26.7433 39.4421L26.5656 39.8558C26.88 40.5988 26.995 40.7234 27.3068 40.881C27.5847 41.0221 27.7737 41.0622 27.9592 41.0221C28.1029 40.9908 28.3181 40.8888 28.4383 40.7956C28.5576 40.7016 28.7039 40.5404 28.7614 40.4368C28.8198 40.3323 28.8694 40.0814 28.8703 39.8776C28.872 39.6738 28.8189 39.3994 28.7527 39.2679C28.6856 39.1364 28.4801 38.9413 28.2954 38.835C28.1108 38.7288 27.8808 38.6417 27.785 38.6408C27.6892 38.6399 27.4558 38.727 27.2659 38.8341C27.0151 38.9752 26.8722 39.1416 26.7433 39.4421ZM39.2387 37.5991C39.5018 37.5938 39.8937 37.647 40.1097 37.7175C40.3257 37.7881 40.668 38.0041 40.8718 38.1974C41.0757 38.3908 41.303 38.6965 41.3779 38.876C41.4519 39.0554 41.4815 39.2331 41.4432 39.2696C41.404 39.3071 41.2159 39.3594 41.0243 39.3864C40.7412 39.4264 40.6193 39.3942 40.371 39.2139C40.2038 39.092 39.919 38.9117 39.7395 38.8141C39.5601 38.7166 39.3641 38.6373 39.304 38.6373C39.2439 38.6382 39.0384 38.7157 38.8468 38.8089C38.6229 38.9178 38.4365 39.0972 38.3268 39.3088C38.2318 39.49 38.1552 39.7356 38.1552 39.8558C38.1552 39.9752 38.2318 40.2217 38.3268 40.4028C38.4348 40.6101 38.6273 40.7983 38.8468 40.9089C39.0758 41.0247 39.2849 41.0683 39.4565 41.036C39.6002 41.009 39.9042 40.8305 40.1315 40.6389C40.4511 40.3706 40.6193 40.2913 40.8718 40.2896C41.0513 40.2887 41.2708 40.3384 41.3587 40.3985C41.5051 40.4995 41.5077 40.5361 41.3962 40.8139C41.3283 40.982 41.1288 41.266 40.9528 41.4454C40.7769 41.6248 40.5052 41.8365 40.3492 41.9149C40.1933 41.9941 39.831 42.0786 39.5436 42.103C39.2352 42.1292 38.8424 42.0995 38.5855 42.0316C38.2614 41.9445 38.0385 41.8017 37.7127 41.4733C37.3948 41.1528 37.2459 40.9185 37.1683 40.618C37.1091 40.3906 37.0621 40.0178 37.063 39.7905C37.0638 39.5632 37.1126 39.22 37.1718 39.0293C37.2354 38.8228 37.4558 38.504 37.7145 38.2445C37.954 38.0032 38.2876 37.7619 38.4548 37.7079C38.622 37.6531 38.9757 37.6043 39.2387 37.5991ZM44.2034 37.5947C44.5658 37.5947 44.895 37.6522 45.118 37.7541C45.3096 37.8412 45.584 38.0102 45.7277 38.1304C45.8714 38.2497 46.0961 38.5598 46.2268 38.8185C46.4558 39.2731 46.4646 39.3385 46.468 42.1204L46.2285 42.1213C46.097 42.1213 45.901 42.063 45.793 41.9907C45.6188 41.8739 45.597 41.8739 45.597 41.9898C45.597 42.0987 45.4307 42.1204 44.6172 42.1187C43.8646 42.117 43.5563 42.0804 43.2889 41.9602C43.0973 41.8739 42.8133 41.6788 42.6574 41.5264C42.5015 41.374 42.2872 41.0831 42.1801 40.8793C42.0303 40.5918 41.9867 40.3628 41.9867 39.8558C41.9867 39.3489 42.0303 39.1198 42.1801 38.8324C42.2872 38.6286 42.5015 38.3377 42.6574 38.1852C42.8133 38.0328 43.0973 37.8377 43.2889 37.7515C43.5092 37.6531 43.8455 37.5947 44.2034 37.5947ZM43.2192 39.335C43.1121 39.5414 43.0764 39.7487 43.1068 39.9865C43.1312 40.1781 43.2244 40.4333 43.3133 40.5526C43.4021 40.6728 43.6103 40.8392 43.774 40.9228C43.9413 41.0082 44.2644 41.0744 44.5083 41.0744C44.7879 41.0744 45.0187 41.1292 45.152 41.2268L45.3601 41.3801C45.2948 39.4238 45.2756 39.3289 45.0744 39.1111C44.9542 38.9813 44.7295 38.822 44.5736 38.7558C44.4177 38.6904 44.2418 38.6373 44.1817 38.6382C44.1216 38.639 43.916 38.727 43.7244 38.835C43.531 38.9439 43.3063 39.166 43.2192 39.335Z" fill="#2F2F2F"/>
</svg>
